<svg xmlns="http://www.w3.org/2000/svg" xmlns:xlink="http://www.w3.org/1999/xlink" id="Object" x="0px" y="0px" viewBox="0 0 70 70" style="enable-background:new 0 0 70 70;" xml:space="preserve"><style type="text/css">	.st0{fill:#ccaf89;}</style><g>	<rect x="31.73" y="22.49" class="st0" width="1.9" height="1.9"></rect>	<rect x="36.37" y="22.49" class="st0" width="1.9" height="1.9"></rect>	<rect x="36.37" y="27.12" class="st0" width="1.9" height="1.9"></rect>	<path class="st0" d="M35,41.49c-0.63,0-1.14,0.51-1.14,1.14c0,0.63,0.51,1.14,1.14,1.14c1.17,0,2.28,0.46,3.1,1.29   c0.83,0.83,1.29,1.93,1.29,3.1c0,0.63,0.51,1.14,1.14,1.14c0.63,0,1.14-0.51,1.14-1.14c0-1.78-0.69-3.46-1.95-4.72   C38.46,42.18,36.78,41.49,35,41.49z"></path>	<rect x="31.73" y="27.12" class="st0" width="1.9" height="1.9"></rect>	<path class="st0" d="M49.88,11.71L35,3.12l-14.88,8.59v9.09l-4.91,2.84V49.3h7.23l0.07,0.52c0.29,2.17,1.14,4.24,2.48,5.99   l0.32,0.42l-2.89,2.89l-0.52-0.52l-5.11,5.11c-0.69,0.69-0.69,1.81,0,2.5l0.15,0.15c0.69,0.69,1.81,0.69,2.5,0l5.11-5.11   l-0.52-0.52l2.89-2.89l0.42,0.32c2.21,1.69,4.86,2.59,7.65,2.59c3.37,0,6.53-1.31,8.91-3.69c1.95-1.95,3.22-4.52,3.58-7.24   l0.07-0.52h7.23V23.63l-4.91-2.84V11.71z M22.4,13.03L35,5.76l12.6,7.27v6.45L35,12.21l-12.6,7.27V13.03z M42.3,55.46   c-1.95,1.95-4.54,3.02-7.3,3.02s-5.35-1.07-7.3-3.02c-1.95-1.95-3.02-4.54-3.02-7.29c0-2.76,1.07-5.35,3.02-7.3   c1.95-1.95,4.54-3.02,7.3-3.02s5.35,1.07,7.3,3.02c1.95,1.95,3.02,4.54,3.02,7.3C45.32,50.92,44.24,53.51,42.3,55.46z M52.51,24.94   v22.08h-4.95l-0.07-0.52c-0.36-2.72-1.63-5.29-3.58-7.24c-2.38-2.38-5.54-3.69-8.91-3.69c-3.37,0-6.53,1.31-8.91,3.69   c-1.95,1.95-3.22,4.52-3.58,7.24l-0.07,0.52h-4.95V24.94L35,14.83l9.23,5.33l0,0L52.51,24.94z"></path></g></svg>