<svg xmlns="http://www.w3.org/2000/svg" xmlns:xlink="http://www.w3.org/1999/xlink" id="Layer_1" x="0px" y="0px" viewBox="0 0 140 140" style="enable-background:new 0 0 140 140;" xml:space="preserve"><style type="text/css">	.st0{fill:#D7B189;}</style><g>	<path class="st0" d="M131.57,108.01c-0.37-0.02-0.76-0.01-1.21-0.01c-0.24,0-0.49,0-0.78,0h-1.59l1.06-1.18   c3.3-3.68,4.63-7.59,4.09-11.93c-0.56-4.41-2.76-7.83-6.74-10.45l-0.87-0.57l1.6-1.14c0.15-0.1,0.29-0.21,0.43-0.32   c3.6-2.78,5.51-6.42,5.68-10.79c0.16-3.9-1.2-7.56-3.83-10.31c-2.7-2.84-6.46-4.42-10.56-4.45c-4.02-0.03-8.12-0.02-12.08-0.02   c-1.78,0-3.55,0.01-5.33,0.01c-0.03,0-0.05,0-0.08,0h-2.23l0-5.87c0-3.05,0.01-6.2-0.01-9.29c0-0.78-0.16-1.31-0.47-1.57   c-0.31-0.27-0.86-0.34-1.64-0.22c-2.28,0.35-4.56,0.7-6.85,1.06c-3.15,0.49-6.29,0.97-9.44,1.45c-1.91,0.29-3.82,0.58-5.77,0.86   l-3.64,0.54l0.14-0.95c0.02-0.17,0-0.37-0.03-0.58c-0.08-0.59-0.23-1.68,1.22-2.18c5.58-1.91,8.21-6.52,7.03-12.33   c-1.05-5.2-3.79-10.03-8.62-15.21c-0.33-0.36-0.67-0.54-1.01-0.54c0,0,0,0,0,0c-0.43,0-0.91,0.28-1.4,0.82   c-2.92,3.17-5.06,6.29-6.56,9.56c-1.33,2.9-2.59,6.36-1.82,10.07c0.8,3.87,3.14,6.42,6.96,7.59c1.53,0.47,1.4,1.65,1.34,2.22   c-0.02,0.18-0.04,0.36-0.02,0.47c0.08,0.44,0.01,0.82-0.2,1.11c-0.34,0.48-0.91,0.56-1.36,0.63c-3.7,0.57-7.39,1.14-11.08,1.71   c-4.29,0.66-8.58,1.33-12.87,1.98c-1.97,0.3-2.17,0.53-2.17,2.44c0,5.12,0,10.24,0,15.37l0,8.64l-2.68-2.03   c-1.13-0.86-2.2-1.67-3.28-2.48c-0.77-0.58-1.47-0.57-2.42,0.03c-3.92,2.49-6.79,5.7-8.51,9.52c-0.68,1.5-1.18,3.09-1.67,4.63   c-0.22,0.7-0.43,1.36-0.65,2.01l-0.16,0.48l-6.75,0c-1.17,0-1.82,0.52-2.32,1.86c-3.4,9.17-0.61,19.46,6.95,25.62   c0.21,0.17,0.41,0.34,0.69,0.57l2.06,1.72h-1.96c-0.73,0-1.41,0-2.06,0c-1.37,0-2.61,0.01-3.86-0.01   c-1.94-0.02-3.88-0.05-5.81-0.07l-1.7-0.02v3.05c0.16,0,0.32-0.01,0.48-0.01c0.95-0.02,1.92-0.04,2.88-0.09   c1-0.06,1.67,0.35,2.11,1.29c0.44,0.92,0.91,1.85,1.36,2.75c0.53,1.04,1.07,2.11,1.57,3.19c0.45,0.97,1.06,1.34,2.21,1.34   c0,0,0,0,0,0c17.99-0.01,35.99-0.01,53.98-0.01l25.74,0c1.65,0,2.06-0.41,2.07-2.09c0.01-1.29,0.01-2.58,0-3.88l0-2.32l0.58-0.11   c0.11-0.02,0.2-0.04,0.29-0.06c0.19-0.04,0.37-0.08,0.58-0.08l1.98,0c1.26,0,2.53-0.01,3.81-0.01c2.11,0,4.23,0.01,6.33,0.04   c0.71,0.01,1.48,0.63,1.78,1.2c1.11,2.06,2.06,3.97,2.92,5.84c0.51,1.11,1.17,1.52,2.36,1.49c1.56-0.05,3.15-0.04,4.68-0.03   c0.7,0,1.39,0.01,2.09,0.01c2.16,0,2.46-0.3,2.46-2.46l0-3.54l0-2.54h0.71c0.23,0,0.45,0,0.64,0c0.38,0,0.7,0,1.03,0   c1.45-0.04,1.87-0.47,1.88-1.92c0.01-2.33,0.02-5.05,0-7.74C133.25,108.54,132.79,108.07,131.57,108.01z M130.25,94.85   c0.56,3.25-0.35,6.59-2.49,9.16c-2.05,2.46-5.01,3.9-8.12,3.94c-5.29,0.07-10.64,0.08-15.93,0.08c-2.77,0-5.52,0-8.24-0.01   c-3.23-0.01-6.45-0.01-9.68-0.01c-0.46,0-0.92,0-1.37,0c-1.4,0.01-2.85,0.01-4.27-0.04c-6.13-0.23-10.89-5.26-10.84-11.43   c0.05-6.14,5.02-11.18,11.08-11.23c9.64-0.08,19.17-0.05,28.11-0.01c3.93,0.02,7,3.15,6.98,7.13c-0.02,3.91-3.07,7-6.94,7.03   c-6.19,0.04-12.48,0.03-18.56,0.02l-2.68-0.01c-1.8,0-2.99-1.08-3.03-2.74c-0.02-0.81,0.24-1.52,0.75-2.04   c0.55-0.57,1.34-0.87,2.28-0.88c3.16-0.02,6.38-0.02,9.49-0.01c1.25,0,2.51,0,3.76,0h0.68v-2.83c-1.19,0-2.39,0-3.58-0.01   c-3.49-0.01-7.1-0.02-10.64,0.02c-2.83,0.03-5.27,2.18-5.55,4.9c-0.32,3.01,1.44,5.6,4.27,6.28c0.59,0.14,1.25,0.16,1.94,0.16   c2.55,0.01,5.1,0,7.65,0c4.08,0,8.31-0.01,12.46,0.02c0.03,0,0.07,0,0.1,0c4.22,0,7.21-1.65,9.14-5.06   c1.95-3.45,1.81-6.98-0.43-10.49c-0.07-0.12-0.11-0.23-0.14-0.33c-0.01-0.04-0.03-0.09-0.05-0.14l-0.31-0.86l0.92-0.08   C123.84,84.74,129.17,88.55,130.25,94.85z M112.63,59.72c3.24,0.02,5.84,1.91,6.79,4.94c0.95,3.04-0.15,6.28-2.68,7.86   c-1.3,0.82-2.87,1.32-4.19,1.34c-5.49,0.09-11.07,0.08-16.47,0.06c-1.43,0-2.86-0.01-4.28-0.01c-1.96,0-3.25-1.1-3.28-2.8   c-0.01-0.8,0.24-1.48,0.72-1.98c0.58-0.59,1.45-0.89,2.59-0.9c2.83-0.01,5.65-0.01,8.48,0l4.89,0c0.08,0,0.16,0,0.24-0.01v-2.84   l-1.51,0c-1.28,0-2.56,0-3.84,0c-2.96-0.01-6.02-0.01-9.02,0.03c-2.68,0.04-4.98,2.07-5.36,4.7c-0.41,2.82,1.19,5.46,3.79,6.29   c0.68,0.22,1.52,0.33,2.49,0.33c2.27,0.01,4.59-0.01,6.82-0.02c4.2-0.03,8.54-0.06,12.81,0.08c4.1,0.15,7.69-1.76,9.61-5.08   c1.88-3.25,1.76-7.19-0.33-10.53l-0.84-1.34l1.56,0.27c5.13,0.88,9.19,6.33,8.69,11.66c-0.59,6.26-5.37,10.64-11.62,10.65l-2.16,0   c-4.48,0.01-9.04,0.02-13.61,0.02c-4.62,0-9.25-0.01-13.85-0.04c-5.7-0.03-10.3-4.13-11.18-9.97c-0.79-5.22,2.64-10.57,7.82-12.2   c1.09-0.34,2.26-0.52,3.39-0.53C97.23,59.69,105.13,59.69,112.63,59.72z M68.59,33.47v3.83l-0.89-0.24   c-2.95-0.78-5.01-3.85-4.79-7.15c0.2-2.99,1.24-5.91,3.28-9.16c0.65-1.04,1.36-2.04,2.11-3.09c0.35-0.49,0.7-0.98,1.07-1.51   l0.55-0.79l0.59,0.76c3.21,4.15,6.12,8.32,6.55,13.72c0.26,3.27-1.67,6.24-4.7,7.22l-0.93,0.3v-3.91H68.59z M24.67,87.21   c0.66-5.68,3.4-10.34,8.16-13.83c0.52-0.38,1.45-0.27,1.91,0.07c4.49,3.33,7.17,7.79,7.96,13.26c0.08,0.55-0.22,1.54-0.86,1.83   c-2.77,1.24-5.3,2.99-7.31,5.05l-0.41,0.42l-9.5-6.37L24.67,87.21z M50.61,89.52c0.01,0,0.03,0,0.04,0c1.25,0,1.93,0.53,2.27,1.76   c1.64,5.89,0.53,12.09-3.03,17c-3.58,4.94-9.16,7.94-15.31,8.22c-0.28,0.01-0.53,0.02-0.75,0.02c-1.59,0-1.87-0.41-2.36-2.34   c-1.48-5.87-0.18-12.02,3.57-16.87C38.81,92.42,44.49,89.58,50.61,89.52z M15.38,104.31c-1.8-4.24-2.05-8.72-0.73-13.3   c0.2-0.7,0.6-1.49,1.87-1.48c6,0.06,10.93,2.27,15.07,6.75l0.37,0.4l-0.28,0.46c-3.43,5.52-4.4,11.31-2.98,17.69l0.28,1.24   l-1.2-0.41C21.8,113.59,17.74,109.88,15.38,104.31z M52.19,120.52c-0.18,0.36-0.35,0.71-0.52,1.05c-0.45,0.93-0.88,1.8-1.36,2.65   c-0.3,0.53-1.06,0.86-1.61,0.86c-5.03,0.01-10.15,0.02-15.46,0.02c-4.67,0-9.48,0-14.49-0.02c-0.45,0-1.24-0.21-1.55-0.76   c-0.5-0.89-0.94-1.79-1.41-2.75c-0.17-0.34-0.34-0.69-0.52-1.05l-0.51-1.03H52.7L52.19,120.52z M70.65,125.02H53.14l0.51-1.03   c0.18-0.36,0.35-0.71,0.52-1.05c0.46-0.95,0.9-1.84,1.41-2.71c0.34-0.59,1.18-0.77,1.62-0.79c1-0.04,1.99-0.03,3.03-0.02   c0.15,0,0.3,0,0.46,0v-2.86H46.56l1.02-1.17c0.36-0.42,0.74-0.84,1.13-1.28c0.85-0.96,1.73-1.95,2.54-2.98   c5.4-6.9,6.63-14.57,3.65-22.81c-0.37-1.02-0.9-1.45-1.79-1.47c-1.57-0.02-3.16-0.02-4.7-0.01c-0.65,0-1.3,0-1.94,0h-0.51   l-0.62-1.88c-0.49-1.49-0.99-2.99-1.47-4.5c-0.12-0.38-0.18-0.73-0.18-1.06c0-8.91,0.01-17.82,0.02-26.74   c0-0.24,0.02-0.47,0.04-0.74c0.01-0.13,0.02-0.26,0.03-0.42l0.03-0.57l52.39-8.06v13.97h-0.71c-0.67,0-1.33,0-1.99-0.01   c-1.46-0.01-2.84-0.02-4.25,0.02c-6.05,0.16-10.37,2.89-12.84,8.11c-2.55,5.4-1.84,10.59,2.12,15.45l1.5,1.82l-1.23,0.19   c-5.4,0.85-9.69,4.37-11.47,9.42c-1.81,5.13-0.58,10.72,3.27,14.96l1.08,1.19h-1.6c-0.25,0-0.49,0-0.71,0   c-0.45,0-0.83-0.01-1.21,0.01c-1.22,0.06-1.68,0.53-1.69,1.74c-0.02,2.7-0.01,5.41,0,7.74c0.01,1.46,0.41,1.88,1.87,1.92   c0.35,0.01,0.7,0.01,1.06,0c0.18,0,0.37,0,0.56,0h0.71V125.02z M81.56,121.53c-0.5,1-0.97,1.94-1.47,2.88   c-0.23,0.44-0.8,0.67-1.23,0.68c-0.77,0.01-1.54,0.02-2.32,0.02c-0.36,0-0.73,0-1.1,0l-1.85,0v-5.58h8.98L81.56,121.53z    M96.22,125.03H82.98l0.52-1.03c0.17-0.34,0.34-0.67,0.5-0.99c0.51-1.01,0.99-1.97,1.51-2.92c0.35-0.63,1.27-0.65,1.37-0.65   c2.23-0.02,4.43-0.01,6.75-0.01l2.58,0V125.03z M126.07,125.1l-1.8,0c-0.36,0-0.72,0-1.09,0c-0.8,0-1.61,0-2.42-0.02   c-0.5-0.01-0.99-0.39-1.18-0.75c-0.48-0.91-0.94-1.83-1.43-2.8l-1.02-2.02h8.94V125.1z M130.35,116.44H69.33v-5.48h61.02V116.44z"></path>	<rect x="49.49" y="56.95" class="st0" width="2.68" height="15.48"></rect>	<rect x="49.48" y="78.26" class="st0" width="2.7" height="2.71"></rect></g></svg>