<svg xmlns="http://www.w3.org/2000/svg" xmlns:xlink="http://www.w3.org/1999/xlink" id="Object" x="0px" y="0px" viewBox="0 0 140 140" style="enable-background:new 0 0 140 140;" xml:space="preserve"><style type="text/css">	.st0{fill:#CCAF89;}</style><g>	<g>		<path class="st0" d="M124.63,136.02c-0.95,0-1.72-0.77-1.72-1.72c0-40.31-13.15-42.74-25.86-45.1l0.29-1.69l0.31-1.69l-0.31,1.69    l0.33-1.68c6.48,1.2,13.83,2.56,19.44,9.21c6.21,7.36,9.23,20.21,9.23,39.26C126.34,135.25,125.57,136.02,124.63,136.02z"></path>	</g>	<g>		<path class="st0" d="M69.99,85.34c-7.92,0-14.54-3-19.14-8.69c-4.2-5.18-6.54-12.32-6.79-20.65c0-0.02,0-0.03,0-0.05V45.25    c0-0.95,0.77-1.72,1.72-1.72s1.72,0.77,1.72,1.72v10.68c0.38,12.56,6.48,25.98,22.5,25.98c16.65,0,22.58-14.12,22.58-27.34v-9.04    c0-0.95,0.77-1.72,1.72-1.72c0.95,0,1.72,0.77,1.72,1.72v9.04C95.99,73.26,85.79,85.34,69.99,85.34z"></path>	</g>	<g>		<path class="st0" d="M78.87,114.13c-0.58,0-1.14-0.29-1.46-0.82l-8.74-14.22c-0.24-0.4-0.31-0.87-0.2-1.32    c0.11-0.45,0.41-0.83,0.81-1.06l3.66-2.1c0.98-0.56,1.68-1.47,1.97-2.56l2.88-10.68c0.25-0.91,1.19-1.46,2.1-1.21    c0.91,0.25,1.46,1.19,1.21,2.1l-2.88,10.68c-0.53,1.97-1.8,3.62-3.57,4.64l-2.12,1.22l7.81,12.72c0.5,0.81,0.24,1.86-0.56,2.36    C79.49,114.04,79.18,114.13,78.87,114.13z"></path>	</g>	<g>		<path class="st0" d="M61.39,114.12c-0.31,0-0.62-0.08-0.9-0.25c-0.81-0.5-1.06-1.55-0.56-2.36l7.81-12.72l-2.12-1.22    c-1.77-1.02-3.04-2.67-3.58-4.64l-2.88-10.68c-0.25-0.91,0.29-1.86,1.21-2.1c0.92-0.25,1.86,0.29,2.1,1.21l2.88,10.68    c0.29,1.09,0.99,1.99,1.97,2.56l3.66,2.1c0.4,0.23,0.69,0.61,0.81,1.06c0.11,0.45,0.04,0.93-0.2,1.32l-8.74,14.22    C62.53,113.83,61.97,114.12,61.39,114.12z"></path>	</g>	<g>		<path class="st0" d="M97.34,89.24c-0.17,0-0.35-0.03-0.52-0.08l-17.89-5.71c-0.9-0.29-1.4-1.25-1.11-2.16    c0.29-0.9,1.25-1.4,2.16-1.11l17.89,5.71c0.9,0.29,1.4,1.25,1.11,2.16C98.74,88.77,98.06,89.24,97.34,89.24z"></path>	</g>	<g>		<path class="st0" d="M70.13,136.02c-0.7,0-1.33-0.43-1.59-1.08L49.1,86.22c-0.35-0.88,0.08-1.88,0.96-2.23    c0.88-0.35,1.88,0.08,2.23,0.96l17.85,44.73l17.85-44.73c0.35-0.88,1.35-1.31,2.23-0.96c0.88,0.35,1.31,1.35,0.96,2.23    l-19.44,48.72C71.47,135.59,70.84,136.02,70.13,136.02z"></path>	</g>	<g>		<path class="st0" d="M15.37,136.02c-0.95,0-1.72-0.77-1.72-1.72c0-19.05,3.02-31.89,9.23-39.26c5.61-6.65,12.96-8.01,19.44-9.21    c0.93-0.17,1.84,0.44,2.01,1.37c0.17,0.93-0.43,1.82-1.36,2l-0.02,0c-12.72,2.35-25.86,4.79-25.86,45.1    C17.09,135.25,16.32,136.02,15.37,136.02z"></path>	</g>	<g>		<path class="st0" d="M42.75,89.24c-0.73,0-1.4-0.46-1.63-1.19c-0.29-0.9,0.21-1.87,1.11-2.16l17.75-5.71    c0.9-0.29,1.87,0.21,2.16,1.11c0.29,0.9-0.21,1.87-1.11,2.16l-17.75,5.71C43.1,89.21,42.93,89.24,42.75,89.24z"></path>	</g>	<g>		<path class="st0" d="M109.03,112.63c-0.95,0-1.72-0.77-1.72-1.72V91.42c0-0.95,0.77-1.72,1.72-1.72c0.95,0,1.72,0.77,1.72,1.72    v19.49C110.75,111.86,109.98,112.63,109.03,112.63z"></path>	</g>	<g>		<path class="st0" d="M31.06,112.63c-0.95,0-1.72-0.77-1.72-1.72V91.42c0-0.95,0.77-1.72,1.72-1.72c0.95,0,1.72,0.77,1.72,1.72    v19.49C32.77,111.86,32.01,112.63,31.06,112.63z"></path>	</g>	<g>		<path class="st0" d="M69.87,52.39c-8.78,0-24.02-5.3-24.66-5.52c-0.52-0.18-0.93-0.61-1.08-1.14l-3-10.34    c-0.15-0.52-0.05-1.08,0.28-1.51c0.32-0.43,0.83-0.69,1.37-0.69H69.6c0.09,0,0.18,0.01,0.27,0.02c0.09-0.01,0.18-0.02,0.27-0.02    h26.82c0.52,0,1.01,0.24,1.34,0.64s0.45,0.94,0.34,1.44l-2.22,10.08c-0.13,0.58-0.55,1.05-1.11,1.25    C94.62,46.85,78.64,52.39,69.87,52.39z M47.17,43.91c3.3,1.1,15.61,5.05,22.7,5.05c7.06,0,19.9-4.11,23.4-5.28l1.55-7.05H70.13    c-0.09,0-0.18-0.01-0.27-0.02c-0.09,0.01-0.18,0.02-0.27,0.02H45.06L47.17,43.91z"></path>	</g>	<g>		<path class="st0" d="M96.95,36.63c-0.36,0-0.72-0.11-1.02-0.34c-0.76-0.57-0.92-1.64-0.35-2.4l10.39-13.93    C99.76,16.94,79.39,7.41,70.13,7.41c-9.26,0-29.63,9.53-35.84,12.54l10.39,13.93c0.57,0.76,0.41,1.83-0.35,2.4    c-0.76,0.57-1.83,0.41-2.4-0.35L30.31,20.35c-0.3-0.41-0.41-0.93-0.29-1.42c0.12-0.49,0.44-0.91,0.9-1.14    c1.12-0.56,27.47-13.82,39.22-13.82c11.75,0,38.1,13.25,39.22,13.82c0.45,0.23,0.78,0.65,0.9,1.14c0.12,0.49,0.01,1.01-0.29,1.42    L98.33,35.94C97.99,36.39,97.48,36.63,96.95,36.63z"></path>	</g>	<g>		<path class="st0" d="M70.13,28.83c-4.7,0-8.53-3.82-8.53-8.53c0-4.7,3.83-8.53,8.53-8.53c4.7,0,8.52,3.83,8.52,8.53    C78.66,25,74.83,28.83,70.13,28.83z M70.13,15.21c-2.81,0-5.1,2.29-5.1,5.1c0,2.81,2.29,5.1,5.1,5.1c2.81,0,5.09-2.29,5.09-5.1    C75.23,17.49,72.94,15.21,70.13,15.21z"></path>	</g></g></svg>