<svg xmlns="http://www.w3.org/2000/svg" xmlns:xlink="http://www.w3.org/1999/xlink" id="&#xD1;&#xEB;&#xEE;&#xE9;_1" x="0px" y="0px" viewBox="0 0 140 140" style="enable-background:new 0 0 140 140;" xml:space="preserve"><style type="text/css">	.st0{fill:#CCAF89;}</style><g>	<path class="st0" d="M34.67,72.39c-0.83,0-1.5-0.67-1.5-1.5c0-20.22,16.45-36.66,36.66-36.66c9.28,0,18.13,3.47,24.93,9.78   c6.76,6.27,10.89,14.77,11.62,23.93c0.07,0.83-0.55,1.55-1.38,1.62c-0.83,0.06-1.55-0.55-1.62-1.38   c-1.39-17.35-16.12-30.94-33.54-30.94c-18.56,0-33.65,15.1-33.65,33.65C36.18,71.71,35.5,72.39,34.67,72.39z"></path>	<path class="st0" d="M126.06,96.65c-0.01,0-0.02,0-0.03,0c-13.67-0.26-26.05-7.38-38.02-14.27c-10.77-6.2-20.94-12.05-31.41-12.73   c-13.51-0.87-25.33,3.86-32.87,7.98c-8.23,4.5-13.3,9.27-13.35,9.32c-0.6,0.57-1.55,0.55-2.13-0.05c-0.57-0.6-0.55-1.55,0.05-2.13   c0.21-0.2,5.35-5.05,13.9-9.73c7.91-4.33,20.32-9.3,34.59-8.38c11.17,0.72,21.64,6.74,32.72,13.12   c11.64,6.7,23.68,13.63,36.58,13.87c0.83,0.02,1.49,0.7,1.48,1.53C127.55,96,126.88,96.65,126.06,96.65z"></path>	<path class="st0" d="M37.24,103.45c-1.38,0-2.7-0.05-3.95-0.14c-11.51-0.81-19.34-4.76-19.67-4.93c-0.74-0.38-1.03-1.28-0.65-2.02   c0.38-0.74,1.29-1.03,2.02-0.65c0.07,0.04,7.7,3.87,18.63,4.61c14.58,1,27.82-3.67,39.35-13.87c15-13.26,30.21-19.85,40.33-23.05   c11.01-3.47,18.39-3.8,18.7-3.81c0.83-0.03,1.53,0.61,1.56,1.45c0.03,0.83-0.61,1.53-1.44,1.56l0,0c-0.07,0-7.37,0.33-18.02,3.71   c-9.81,3.11-24.57,9.52-39.13,22.39C61.56,100.55,47.63,103.45,37.24,103.45z"></path>	<path class="st0" d="M44.38,126.72c-0.3,0-0.61-0.09-0.87-0.28c-0.68-0.48-0.83-1.42-0.35-2.1c0.27-0.37,6.69-9.25,19.44-15.91   c7.48-3.91,15.6-6.23,24.12-6.89c10.61-0.83,21.88,0.93,33.48,5.22c0.78,0.29,1.18,1.15,0.89,1.93c-0.29,0.78-1.15,1.18-1.93,0.89   c-25.29-9.35-43.95-4.33-55.16,1.52c-12.12,6.33-18.32,14.9-18.38,14.99C45.31,126.5,44.85,126.72,44.38,126.72z"></path>	<path class="st0" d="M70,134.19c-35.4,0-64.19-28.8-64.19-64.19c0-17.15,6.68-33.27,18.8-45.39C36.73,12.49,52.85,5.81,70,5.81   c35.4,0,64.19,28.8,64.19,64.19C134.19,105.4,105.4,134.19,70,134.19z M70,8.82C36.26,8.82,8.82,36.26,8.82,70   c0,33.74,27.45,61.18,61.18,61.18c33.74,0,61.18-27.45,61.18-61.18C131.18,36.26,103.74,8.82,70,8.82z"></path></g></svg>