<svg xmlns="http://www.w3.org/2000/svg" xmlns:xlink="http://www.w3.org/1999/xlink" id="Layer_1" x="0px" y="0px" viewBox="0 0 140 140" style="enable-background:new 0 0 140 140;" xml:space="preserve"><style type="text/css">	.st0{fill:#CDB08A;}</style><g>	<path class="st0" d="M133.52,14.54c0-0.84,0-1.7-0.04-2.54c-0.09-1.76-0.84-3.17-2.37-4.42c-1.42-1.16-3.09-1.17-4.86-1.18l-0.04,0   c-10.12-0.07-18.55-0.1-26.39-0.1c-0.48,0-0.96,0-1.43,0C78.21,6.31,58.03,6.33,37.85,6.35L13.22,6.38c-4.47,0-6.74,2.3-6.74,6.83   c0,37.89,0,75.77,0,113.66c0,4.6,2.25,6.83,6.88,6.83l113.14,0c4.79,0,7.02-2.21,7.02-6.97c0-37.33,0-74.66,0-111.99V14.54z    M13.33,9.34l32.86,0l0.05,0.68c0.94,12.01-1.77,23.26-7.84,32.52c-6.29,9.6-15.95,16.64-27.96,20.35l-0.92,0.28L9.5,62.22   c-0.01-0.16-0.02-0.31-0.02-0.47c-0.02-0.33-0.04-0.68-0.04-1.03c0-15.81,0-31.62,0-47.44C9.43,10.3,10.38,9.34,13.33,9.34z    M36.38,130.74l-23.04,0c-2.92,0-3.9-1-3.9-3.95l0-11.31c0-15.39,0-31.3-0.03-46.95c0-1.4,0.51-2.15,1.82-2.67   c0.55-0.22,1.1-0.43,1.65-0.65c4.82-1.89,9.81-3.84,14.12-6.88c1.26-0.89,2.48-1.84,3.77-2.84c0.6-0.47,1.22-0.95,1.86-1.44   l0.98-0.75l12.91,77.42H36.38z M90.52,130.68H49.48l-2.17-13.03l1.39,0.85c0.35,0.22,0.68,0.41,0.98,0.58   c0.62,0.36,1.16,0.67,1.65,1.07c3.43,2.78,7.31,2.74,10.65-0.1c2.32-1.98,4.8-1.97,7.17,0.02c3.3,2.78,7.15,2.83,10.55,0.13   c2.67-2.12,4.19-2.19,7.07-0.31c0.96,0.63,1.98,1.19,3.07,1.79c0.52,0.29,1.05,0.58,1.6,0.89l0.45,0.26L90.52,130.68z    M92.32,119.82l-0.92-0.53c-0.32-0.18-0.62-0.35-0.91-0.51c-0.6-0.32-1.16-0.63-1.68-1.01c-3.99-2.91-6.7-2.92-10.74-0.04   c-2.83,2.02-4.38,1.99-7.22-0.12c-3.64-2.71-6.75-2.72-10.39-0.02c-2.96,2.19-4.49,2.18-7.43-0.05c-1.62-1.23-3.01-1.82-4.49-1.91   c-0.62-0.04-1.48-0.68-1.6-1.36c-0.45-2.55-0.86-5.13-1.29-7.86l-0.65-4.09l1.42,0.97c0.28,0.19,0.53,0.35,0.75,0.5   c0.43,0.28,0.77,0.51,1.1,0.76c4.13,3.21,7.98,3.25,12.12,0.12c3.51-2.65,5.74-2.61,9.18,0.15c3.67,2.95,7.47,3.04,11.29,0.28   c0.18-0.13,0.35-0.26,0.53-0.39c0.38-0.29,0.77-0.59,1.2-0.85c2.26-1.4,4.54-1.36,6.77,0.12c0.66,0.44,1.34,0.87,2,1.28   c0.72,0.45,1.45,0.91,2.17,1.39c0.44,0.29,0.85,0.98,0.75,1.57c-0.43,2.72-0.9,5.42-1.39,8.29L92.32,119.82z M129.71,129.89   c-0.71,0.71-1.8,0.86-3.21,0.86l-22.85,0H93.5l12.79-76.73l0.66,0.04c0.04,0,0.08,0,0.11,0c0.15-0.01,0.45-0.01,0.71,0.22   c6.09,5.63,13.39,8.82,19.72,11.19c2.87,1.07,3.07,1.36,3.07,4.42l0.01,56.79C130.57,128.09,130.43,129.17,129.71,129.89z    M130.57,63.53l-1.03-0.44c-1.11-0.48-2.22-0.93-3.3-1.37c-2.43-0.99-4.72-1.93-6.96-3.1c-8.81-4.61-15.65-11.54-20.32-20.6   l-0.11-0.23c-0.12-0.24-0.23-0.46-0.36-0.64c-0.54-0.73-1.12-0.9-1.89-0.55c-0.72,0.33-1.02,1.11-0.7,1.83   c0.46,1.03,1.02,2.22,1.76,3.29c0.91,1.32,1.87,2.64,2.8,3.92c0.89,1.22,1.8,2.47,2.68,3.73c0.4,0.58,0.75,1.54,0.62,2.36   c-2.56,15.38-5.2,31.01-7.76,46.13l-0.63,3.75c-0.05,0.29-0.12,0.56-0.2,0.91c-0.04,0.17-0.09,0.37-0.14,0.59l-0.25,1.1l-1.87-1.38   c-0.62-0.46-1.19-0.88-1.76-1.3c-3.32-2.41-7.43-2.45-10.45-0.11c-4.6,3.56-6.87,3.09-10.95-0.02c-3.03-2.31-7.07-2.25-10.3,0.16   c-0.23,0.17-0.46,0.35-0.68,0.53c-0.25,0.19-0.49,0.39-0.75,0.57c-2.48,1.83-4.9,1.88-7.61,0.13c-0.98-0.63-2.05-1.18-3.09-1.72   c-0.71-0.37-1.45-0.74-2.16-1.15c-0.51-0.29-0.96-0.93-1.06-1.52c-1.18-6.98-2.36-14.08-3.49-20.95l-1.68-10.13   c-0.8-4.87-1.64-9.9-2.5-14.85c-0.26-1.48,0.04-2.59,0.98-3.73c7.46-8.97,11.46-19.51,11.89-31.33c0.06-1.62,0.04-3.21,0.03-4.9   c-0.01-0.78-0.02-1.56-0.02-2.36V9.43h41.39v0.74c0,0.78-0.01,1.56-0.01,2.34c-0.02,2-0.03,4.06,0.07,6.07   c0.03,0.58,0.45,1.38,0.88,1.68c0.46,0.32,0.87,0.23,1.14,0.09c0.52-0.27,0.85-0.89,0.86-1.6c0.03-1.96,0.02-3.91,0.02-5.96   c0-0.89-0.01-1.79-0.01-2.71V9.34l10.29,0c7.61,0,15.21,0,22.82,0c2.79,0,3.82,1.02,3.82,3.76c0,12.13,0,24.26,0,36.38   L130.57,63.53z"></path>	<path class="st0" d="M85.21,37.77c-1.04-0.2-2.17-0.15-3.37-0.09c-0.58,0.03-1.17,0.06-1.78,0.06h-0.43l-0.21-0.37   c-1.77-3.03-4.44-4.5-7.74-4.26c-3.62,0.26-6.11,2.32-7.4,6.09l-0.17,0.5l-1,0c-0.15,0-0.29,0-0.44,0c-0.17,0-0.33,0-0.5,0   c-3.76,0.01-6.89,3.05-6.98,6.78c-0.04,1.96,0.69,3.87,2,5.23c1.22,1.27,2.85,1.98,4.59,2.01c7.29,0.11,14.68,0.11,21.98,0   c3.89-0.06,7.31-3.33,7.63-7.29C91.75,42.17,89.14,38.54,85.21,37.77z M87.89,47.94c-0.95,1.84-2.53,2.82-4.54,2.84   c-2.49,0.02-5.01,0.02-7.46,0.01c-0.78,0-1.57,0-2.35,0l-0.71,0.01l-2.93,0c-2.39,0-4.78,0-7.17,0c0,0,0,0-0.01,0   c-2.66,0-3.75-1.42-4.2-2.62c-0.59-1.58-0.17-3.34,1.09-4.47c1.4-1.26,3.06-1.38,4.93-0.35c0.76,0.42,1.4,0.52,1.8,0.29   c0.42-0.24,0.67-0.93,0.69-1.88c0.04-2.16,0.9-3.98,2.36-4.99c1.3-0.9,2.93-1.06,4.59-0.46c1.77,0.64,2.88,1.93,3.32,3.83   c0.26,1.15,0.56,1.8,0.88,1.95c0.32,0.14,1.02-0.08,2.06-0.67c2.98-1.67,5.81-1.13,7.4,1.42C88.68,44.51,88.76,46.26,87.89,47.94z"></path>	<path class="st0" d="M83.3,61.92c-0.37-0.02-0.87-0.04-1.18,0.09c-1.29,0.54-2.6,1.14-3.86,1.71c-0.29,0.13-0.58,0.27-0.87,0.4   l0.53,2.05l-1.79-1.52c-0.12-0.1-0.24-0.21-0.36-0.31c-0.25-0.22-0.5-0.43-0.76-0.64c-1.48-1.18-3.13-1.78-4.92-1.78   c-0.04,0-0.07,0-0.11,0c-0.81,0.01-1.41,0.58-1.45,1.38c-0.04,0.77,0.51,1.4,1.34,1.55c3.69,0.64,4.63,1.59,5.31,5.33   c0.16,0.88,0.64,1.31,1.46,1.32c0,0,0.01,0,0.01,0c0.81,0,1.29-0.43,1.45-1.31c0.72-3.81,1.61-4.71,5.3-5.33   c0.83-0.14,1.39-0.77,1.36-1.53C84.72,62.53,84.12,61.96,83.3,61.92z"></path>	<path class="st0" d="M65.56,77.46c-0.37-0.01-0.88-0.04-1.18,0.09c-1.29,0.54-2.56,1.13-3.91,1.75c-0.52,0.24-1.04,0.48-1.59,0.73   l-0.47,0.21l-0.36-0.37c-1.47-1.5-3.44-2.36-5.55-2.41c-0.02,0-0.04,0-0.06,0c-0.94,0-1.58,0.54-1.61,1.4   c-0.04,0.81,0.54,1.41,1.47,1.54c3.32,0.45,4.67,1.82,5.17,5.23c0.13,0.89,0.69,1.44,1.45,1.42c0.85-0.04,1.32-0.46,1.48-1.33   c0.68-3.73,1.62-4.67,5.31-5.32c0.83-0.15,1.38-0.78,1.34-1.55C66.99,78.07,66.38,77.5,65.56,77.46z"></path>	<path class="st0" d="M94.78,26.99c-0.22-0.49-0.58-0.74-1.09-0.74c-0.18,0-0.37,0.03-0.58,0.09c-0.34,0.1-1.13,0.43-1,1.35   c0.15,1.03,0.47,2.14,0.94,3.21c0.34,0.77,1.02,0.73,1.54,0.57c0.5-0.16,1.02-0.44,1.03-1.74c-0.06-0.19-0.11-0.41-0.17-0.63   C95.28,28.43,95.09,27.68,94.78,26.99z"></path></g></svg>