<svg xmlns="http://www.w3.org/2000/svg" xmlns:xlink="http://www.w3.org/1999/xlink" id="Object" x="0px" y="0px" viewBox="0 0 140 140" style="enable-background:new 0 0 140 140;" xml:space="preserve"><style type="text/css">	.st0{fill:#CCAF89;}</style><g>	<g>		<g>			<path class="st0" d="M138.29,131.76h-13.13c-0.68,0-1.28-0.43-1.5-1.07l-4.52-12.98c-1.44-4.15-5.36-6.93-9.75-6.93H29.93     c-4.54,0-8.5,2.91-9.85,7.24l-3.96,12.63c-0.21,0.66-0.82,1.11-1.52,1.11H1.71c-0.88,0-1.59-0.71-1.59-1.59s0.71-1.59,1.59-1.59     h11.73l3.61-11.51c1.77-5.66,6.95-9.47,12.89-9.47h79.45c5.74,0,10.87,3.64,12.75,9.06l4.15,11.92h12c0.88,0,1.59,0.71,1.59,1.59     S139.17,131.76,138.29,131.76z"></path>		</g>		<g>			<g>				<g>					<path class="st0" d="M75.09,87.6c-0.78,0-1.47-0.58-1.57-1.38c-0.7-5.17-2.49-7.93-3.52-7.93c-0.85,0-2.75,2.33-3.51,7.93       c-0.12,0.87-0.92,1.48-1.79,1.36c-0.87-0.12-1.48-0.92-1.36-1.79c0.89-6.59,3.44-10.68,6.66-10.68c3.23,0,5.78,4.09,6.67,10.68       c0.12,0.87-0.49,1.67-1.36,1.79C75.23,87.59,75.16,87.6,75.09,87.6z"></path>				</g>				<g>					<g>						<path class="st0" d="M71.02,108.63c-0.59,0-1.16-0.12-1.69-0.36c-1.93-0.87-2.96-3.13-2.9-6.38c0.05-2.78,0.87-6.09,2.33-9.32        c1.46-3.23,3.39-6.05,5.45-7.92c2.39-2.19,4.77-2.91,6.7-2.04c1.93,0.87,2.96,3.13,2.9,6.38c-0.05,2.78-0.87,6.09-2.33,9.32v0        c-1.46,3.23-3.39,6.05-5.45,7.92C74.3,107.81,72.58,108.63,71.02,108.63z M79.2,85.42c-1.63,0-5.07,2.99-7.53,8.45        c-2.69,5.97-2.4,10.87-1.02,11.49c1.38,0.62,5.25-2.4,7.94-8.37c2.69-5.97,2.4-10.87,1.02-11.49        C79.49,85.45,79.35,85.42,79.2,85.42z M80.04,97.65L80.04,97.65L80.04,97.65z"></path>					</g>					<g>						<path class="st0" d="M68.98,108.62c-1.55,0-3.29-0.82-5.02-2.41c-2.05-1.87-3.98-4.68-5.44-7.91        c-2.25-4.99-2.94-9.97-1.79-13.01c0.49-1.28,1.3-2.21,2.36-2.69c1.05-0.48,2.28-0.48,3.56,0.01c3.04,1.15,6.33,4.96,8.57,9.96        l0.23,0.52c0.35,0.8-0.02,1.74-0.82,2.09c-0.8,0.35-1.74-0.02-2.09-0.82l-0.22-0.51c-2.14-4.75-4.95-7.58-6.79-8.27        c-0.33-0.12-0.79-0.24-1.13-0.09c-0.35,0.16-0.57,0.59-0.7,0.92c-0.7,1.84-0.44,5.82,1.71,10.58        c2.69,5.96,6.56,8.98,7.94,8.37c0.8-0.36,1.74,0,2.1,0.81c0.36,0.8,0,1.74-0.81,2.1C70.12,108.51,69.56,108.62,68.98,108.62z"></path>					</g>				</g>			</g>			<g>				<g>					<path class="st0" d="M110.6,87.6c-0.78,0-1.47-0.58-1.57-1.38c-0.76-5.6-2.67-7.93-3.52-7.93c-0.85,0-2.75,2.33-3.51,7.93       c-0.12,0.87-0.92,1.48-1.79,1.36c-0.87-0.12-1.48-0.92-1.36-1.79c0.89-6.59,3.44-10.68,6.66-10.68c3.23,0,5.78,4.09,6.67,10.68       c0.12,0.87-0.49,1.67-1.36,1.79C110.74,87.59,110.67,87.6,110.6,87.6z"></path>				</g>				<g>					<g>						<path class="st0" d="M106.53,108.63c-0.59,0-1.16-0.12-1.69-0.36c-1.93-0.87-2.96-3.13-2.9-6.38        c0.05-2.78,0.87-6.09,2.33-9.32c1.46-3.23,3.39-6.05,5.45-7.92c2.4-2.19,4.78-2.91,6.7-2.04c1.93,0.87,2.96,3.13,2.9,6.38        c-0.05,2.78-0.87,6.09-2.33,9.32l0,0c-1.46,3.23-3.39,6.05-5.45,7.92C109.81,107.81,108.08,108.63,106.53,108.63z         M114.7,85.42c-1.63,0-5.07,2.99-7.53,8.45c-2.69,5.97-2.4,10.87-1.02,11.49c0.12,0.05,0.26,0.08,0.41,0.08        c1.63,0,5.07-2.99,7.53-8.45v0c2.69-5.97,2.4-10.87,1.02-11.49C114.99,85.45,114.86,85.42,114.7,85.42z"></path>					</g>					<g>						<path class="st0" d="M104.48,108.62c-1.56,0-3.29-0.82-5.02-2.41c-2.05-1.87-3.98-4.68-5.44-7.91        c-2.25-4.99-2.94-9.97-1.79-13.01c0.49-1.28,1.3-2.21,2.36-2.69c1.05-0.48,2.28-0.48,3.56,0.01c3.04,1.15,6.33,4.96,8.57,9.96        l0.23,0.52c0.35,0.8-0.02,1.74-0.82,2.09c-0.8,0.35-1.74-0.02-2.09-0.82l-0.22-0.51c-2.14-4.75-4.95-7.58-6.79-8.27        c-0.33-0.12-0.79-0.24-1.13-0.09c-0.35,0.16-0.57,0.59-0.7,0.92c-0.7,1.84-0.44,5.82,1.71,10.58        c2.69,5.96,6.56,8.98,7.94,8.37c0.8-0.36,1.74,0,2.1,0.81c0.36,0.8,0,1.74-0.81,2.1        C105.63,108.51,105.07,108.62,104.48,108.62z"></path>					</g>				</g>			</g>			<g>				<g>					<path class="st0" d="M39.58,87.6c-0.78,0-1.47-0.58-1.57-1.38c-0.76-5.6-2.67-7.93-3.52-7.93c-0.85,0-2.75,2.33-3.51,7.93       c-0.12,0.87-0.92,1.48-1.79,1.36c-0.87-0.12-1.48-0.92-1.36-1.79c0.89-6.59,3.44-10.68,6.66-10.68c3.23,0,5.78,4.09,6.67,10.68       c0.12,0.87-0.49,1.67-1.36,1.79C39.73,87.59,39.65,87.6,39.58,87.6z"></path>				</g>				<g>					<g>						<path class="st0" d="M35.52,108.63c-0.59,0-1.16-0.12-1.69-0.36c-1.93-0.87-2.96-3.13-2.9-6.38c0.05-2.78,0.87-6.09,2.33-9.32        c1.46-3.23,3.39-6.05,5.45-7.92c2.4-2.19,4.77-2.91,6.7-2.04c1.93,0.87,2.96,3.13,2.9,6.38c-0.05,2.78-0.87,6.09-2.33,9.32        c-1.46,3.23-3.39,6.05-5.45,7.92C38.8,107.81,37.07,108.63,35.52,108.63z M43.69,85.42c-1.63,0-5.07,2.99-7.53,8.45        c-2.69,5.97-2.4,10.87-1.02,11.49c0.12,0.05,0.26,0.08,0.41,0.08c1.63,0,5.07-2.99,7.53-8.45v0        c2.69-5.97,2.4-10.87,1.02-11.49C43.98,85.45,43.84,85.42,43.69,85.42z"></path>					</g>					<g>						<path class="st0" d="M33.47,108.62c-1.55,0-3.29-0.82-5.02-2.41c-2.05-1.87-3.98-4.68-5.44-7.91        c-2.25-4.99-2.94-9.97-1.79-13.01c0.49-1.28,1.3-2.21,2.36-2.69c1.05-0.48,2.28-0.48,3.56,0.01c3.04,1.15,6.33,4.96,8.57,9.96        l0.23,0.52c0.35,0.8-0.01,1.74-0.82,2.09c-0.8,0.35-1.74-0.01-2.09-0.82l-0.22-0.51c-2.14-4.75-4.95-7.58-6.79-8.27        c-0.33-0.12-0.79-0.24-1.13-0.09c-0.35,0.16-0.57,0.59-0.7,0.92c-0.7,1.84-0.44,5.82,1.71,10.58        c2.69,5.96,6.56,8.98,7.94,8.37c0.8-0.36,1.74,0,2.1,0.81c0.36,0.8,0,1.74-0.81,2.1C34.62,108.51,34.06,108.62,33.47,108.62z"></path>					</g>				</g>			</g>		</g>		<g>			<path class="st0" d="M31.52,121.43c-0.41,0-0.81-0.16-1.12-0.47l-0.75-0.75c-0.62-0.62-0.62-1.63,0-2.25     c0.62-0.62,1.63-0.62,2.25,0l0.75,0.75c0.62,0.62,0.62,1.63,0,2.25C32.34,121.27,31.93,121.43,31.52,121.43z"></path>		</g>		<g>			<path class="st0" d="M51.07,122.77c-0.41,0-0.81-0.16-1.12-0.47l-0.6-0.6c-0.62-0.62-0.62-1.63,0-2.25     c0.62-0.62,1.63-0.62,2.25,0l0.6,0.6c0.62,0.62,0.62,1.63,0,2.25C51.88,122.62,51.47,122.77,51.07,122.77z"></path>		</g>		<g>			<path class="st0" d="M72.48,121.95c-0.41,0-0.81-0.16-1.12-0.47l-0.52-0.52c-0.62-0.62-0.62-1.63,0-2.25     c0.62-0.62,1.63-0.62,2.25,0l0.52,0.52c0.62,0.62,0.62,1.63,0,2.25C73.29,121.8,72.88,121.95,72.48,121.95z"></path>		</g>		<g>			<path class="st0" d="M92.84,122.62c-0.41,0-0.81-0.16-1.12-0.47l-0.6-0.6c-0.62-0.62-0.62-1.63,0-2.25     c0.62-0.62,1.63-0.62,2.25,0l0.6,0.6c0.62,0.62,0.62,1.63,0,2.25C93.65,122.47,93.25,122.62,92.84,122.62z"></path>		</g>		<g>			<path class="st0" d="M112.16,122.7c-0.41,0-0.81-0.16-1.12-0.47l-0.82-0.82c-0.62-0.62-0.62-1.63,0-2.25     c0.62-0.62,1.63-0.62,2.25,0l0.82,0.82c0.62,0.62,0.62,1.63,0,2.25C112.97,122.54,112.57,122.7,112.16,122.7z"></path>		</g>	</g>	<g>		<g>			<path class="st0" d="M138.29,64.89h-13.13c-0.68,0-1.28-0.43-1.5-1.07l-4.52-12.98c-1.44-4.15-5.36-6.93-9.75-6.93H29.93     c-4.54,0-8.5,2.91-9.85,7.24l-3.96,12.63c-0.21,0.66-0.82,1.11-1.52,1.11H1.71c-0.88,0-1.59-0.71-1.59-1.59     c0-0.88,0.71-1.59,1.59-1.59h11.73l3.61-11.51c1.77-5.66,6.95-9.47,12.89-9.47h79.45c5.74,0,10.87,3.64,12.75,9.06l4.15,11.92h12     c0.88,0,1.59,0.71,1.59,1.59C139.88,64.18,139.17,64.89,138.29,64.89z"></path>		</g>		<g>			<g>				<g>					<path class="st0" d="M75.09,20.72c-0.78,0-1.47-0.58-1.57-1.38c-0.7-5.17-2.49-7.93-3.52-7.93c-0.85,0-2.75,2.33-3.51,7.93       c-0.12,0.87-0.92,1.48-1.79,1.36c-0.87-0.12-1.48-0.92-1.36-1.79c0.89-6.59,3.44-10.68,6.66-10.68c3.23,0,5.78,4.09,6.67,10.68       c0.12,0.87-0.49,1.67-1.36,1.79C75.23,20.72,75.16,20.72,75.09,20.72z"></path>				</g>				<g>					<g>						<path class="st0" d="M71.02,41.75c-0.59,0-1.16-0.12-1.69-0.36c-1.93-0.87-2.96-3.13-2.9-6.38c0.05-2.78,0.87-6.09,2.33-9.32        c1.46-3.23,3.39-6.05,5.45-7.92c2.39-2.19,4.77-2.91,6.7-2.04c1.93,0.87,2.96,3.13,2.9,6.38c-0.05,2.78-0.87,6.09-2.33,9.32        l0,0c-1.46,3.23-3.39,6.05-5.45,7.92C74.3,40.94,72.58,41.75,71.02,41.75z M79.2,18.55c-1.63,0-5.07,2.99-7.53,8.45        c-1.27,2.81-2.01,5.75-2.05,8.07c-0.04,2.17,0.53,3.2,1.03,3.42c1.38,0.62,5.25-2.4,7.94-8.37c2.69-5.97,2.4-10.87,1.02-11.49        C79.49,18.58,79.35,18.55,79.2,18.55z M80.04,30.78L80.04,30.78L80.04,30.78z"></path>					</g>					<g>						<path class="st0" d="M68.98,41.75c-1.55,0-3.28-0.82-5.02-2.41c-2.05-1.87-3.98-4.68-5.44-7.91        c-2.25-4.99-2.94-9.97-1.79-13.01c0.49-1.28,1.3-2.21,2.36-2.69c1.05-0.48,2.28-0.48,3.56,0.01c3.04,1.15,6.32,4.96,8.57,9.96        l0.23,0.52c0.35,0.8-0.02,1.74-0.82,2.09c-0.8,0.35-1.74-0.01-2.09-0.82l-0.22-0.51c-2.14-4.75-4.95-7.58-6.79-8.27        c-0.33-0.12-0.79-0.24-1.13-0.09c-0.35,0.16-0.57,0.59-0.7,0.92c-0.7,1.84-0.44,5.82,1.71,10.58        c2.69,5.96,6.56,8.98,7.94,8.37c0.8-0.36,1.74,0,2.1,0.81c0.36,0.8,0,1.74-0.81,2.1C70.12,41.63,69.56,41.75,68.98,41.75z"></path>					</g>				</g>			</g>			<g>				<g>					<path class="st0" d="M110.6,20.72c-0.78,0-1.47-0.58-1.57-1.38c-0.76-5.6-2.67-7.93-3.52-7.93c-0.85,0-2.75,2.33-3.51,7.93       c-0.12,0.87-0.92,1.48-1.79,1.36c-0.87-0.12-1.48-0.92-1.36-1.79c0.89-6.59,3.44-10.68,6.66-10.68c3.23,0,5.78,4.09,6.67,10.68       c0.12,0.87-0.49,1.67-1.36,1.79C110.74,20.72,110.67,20.72,110.6,20.72z"></path>				</g>				<g>					<g>						<path class="st0" d="M106.53,41.75c-0.59,0-1.16-0.12-1.69-0.36c-1.93-0.87-2.96-3.13-2.9-6.38c0.05-2.78,0.87-6.09,2.33-9.32        c1.46-3.23,3.39-6.05,5.45-7.92c2.4-2.19,4.78-2.91,6.7-2.04c1.93,0.87,2.96,3.13,2.9,6.38c-0.05,2.78-0.87,6.09-2.33,9.32        c-1.46,3.23-3.39,6.05-5.45,7.92C109.81,40.94,108.08,41.75,106.53,41.75z M114.7,18.55c-1.63,0-5.07,2.99-7.53,8.45        c-2.69,5.97-2.4,10.87-1.02,11.49c0.5,0.23,1.65-0.03,3.25-1.49c1.72-1.57,3.43-4.07,4.69-6.88l0,0        c1.27-2.81,2.01-5.75,2.05-8.07c0.04-2.17-0.53-3.2-1.03-3.42C114.99,18.58,114.86,18.55,114.7,18.55z"></path>					</g>					<g>						<path class="st0" d="M104.48,41.75c-1.55,0-3.28-0.82-5.02-2.41c-2.05-1.87-3.98-4.68-5.44-7.91        c-2.25-4.99-2.94-9.97-1.79-13.01c0.49-1.28,1.3-2.21,2.36-2.69c1.05-0.48,2.28-0.48,3.56,0.01c3.04,1.15,6.33,4.96,8.57,9.96        l0.23,0.52c0.35,0.8-0.02,1.74-0.82,2.09c-0.8,0.35-1.74-0.01-2.09-0.82l-0.22-0.51c-2.14-4.75-4.95-7.58-6.79-8.27        c-0.33-0.12-0.79-0.24-1.13-0.09c-0.35,0.16-0.57,0.59-0.7,0.92c-0.7,1.84-0.44,5.82,1.71,10.58        c2.69,5.96,6.56,8.98,7.94,8.37c0.8-0.36,1.74,0,2.1,0.81c0.36,0.8,0,1.74-0.81,2.1C105.63,41.63,105.07,41.75,104.48,41.75z"></path>					</g>				</g>			</g>			<g>				<g>					<path class="st0" d="M39.58,20.72c-0.78,0-1.47-0.58-1.57-1.38c-0.76-5.6-2.67-7.93-3.52-7.93c-0.85,0-2.75,2.33-3.51,7.93       c-0.12,0.87-0.92,1.48-1.79,1.36c-0.87-0.12-1.48-0.92-1.36-1.79c0.89-6.59,3.44-10.68,6.66-10.68c3.23,0,5.78,4.09,6.67,10.68       c0.12,0.87-0.49,1.67-1.36,1.79C39.73,20.72,39.65,20.72,39.58,20.72z"></path>				</g>				<g>					<g>						<path class="st0" d="M35.52,41.75c-0.59,0-1.16-0.12-1.69-0.36c-1.93-0.87-2.96-3.13-2.9-6.38c0.05-2.78,0.87-6.09,2.33-9.32        c1.46-3.23,3.39-6.05,5.45-7.92c2.4-2.19,4.77-2.91,6.7-2.04c1.93,0.87,2.96,3.13,2.9,6.38c-0.05,2.78-0.87,6.09-2.33,9.32        c-1.46,3.23-3.39,6.05-5.45,7.92C38.8,40.94,37.07,41.75,35.52,41.75z M43.69,18.55c-1.63,0-5.07,2.99-7.53,8.45        c-1.27,2.81-2.01,5.75-2.05,8.07c-0.04,2.17,0.53,3.2,1.03,3.42c0.5,0.22,1.65-0.03,3.25-1.49c1.72-1.57,3.43-4.07,4.69-6.88        c2.69-5.97,2.4-10.87,1.02-11.49C43.98,18.58,43.84,18.55,43.69,18.55z"></path>					</g>					<g>						<path class="st0" d="M33.47,41.75c-1.55,0-3.29-0.82-5.02-2.41c-2.05-1.87-3.98-4.68-5.44-7.91        c-2.25-4.99-2.94-9.97-1.79-13.01c0.49-1.28,1.3-2.21,2.36-2.69c1.05-0.48,2.28-0.48,3.56,0.01c3.04,1.15,6.33,4.96,8.57,9.96        l0.23,0.52c0.35,0.8-0.01,1.74-0.82,2.09c-0.8,0.35-1.74-0.01-2.09-0.82l-0.22-0.51c-2.14-4.75-4.95-7.58-6.79-8.27        c-0.33-0.12-0.79-0.24-1.13-0.09c-0.35,0.16-0.57,0.59-0.7,0.92c-0.7,1.84-0.44,5.82,1.71,10.58        c2.69,5.96,6.56,8.98,7.94,8.37c0.8-0.36,1.74,0,2.1,0.81c0.36,0.8,0,1.74-0.81,2.1C34.62,41.63,34.06,41.75,33.47,41.75z"></path>					</g>				</g>			</g>		</g>		<g>			<path class="st0" d="M31.52,54.56c-0.41,0-0.81-0.16-1.12-0.47l-0.75-0.75c-0.62-0.62-0.62-1.63,0-2.25     c0.62-0.62,1.63-0.62,2.25,0l0.75,0.75c0.62,0.62,0.62,1.63,0,2.25C32.34,54.4,31.93,54.56,31.52,54.56z"></path>		</g>		<g>			<path class="st0" d="M51.07,55.9c-0.41,0-0.81-0.16-1.12-0.47l-0.6-0.6c-0.62-0.62-0.62-1.63,0-2.25c0.62-0.62,1.63-0.62,2.25,0     l0.6,0.6c0.62,0.62,0.62,1.63,0,2.25C51.88,55.74,51.47,55.9,51.07,55.9z"></path>		</g>		<g>			<path class="st0" d="M72.48,55.08c-0.41,0-0.81-0.16-1.12-0.47l-0.52-0.52c-0.62-0.62-0.62-1.63,0-2.25     c0.62-0.62,1.63-0.62,2.25,0l0.52,0.52c0.62,0.62,0.62,1.63,0,2.25C73.29,54.92,72.88,55.08,72.48,55.08z"></path>		</g>		<g>			<path class="st0" d="M92.84,55.75c-0.41,0-0.81-0.16-1.12-0.47l-0.6-0.6c-0.62-0.62-0.62-1.63,0-2.25c0.62-0.62,1.63-0.62,2.25,0     l0.6,0.6c0.62,0.62,0.62,1.63,0,2.25C93.65,55.6,93.25,55.75,92.84,55.75z"></path>		</g>		<g>			<path class="st0" d="M112.16,55.83c-0.41,0-0.81-0.16-1.12-0.47l-0.82-0.82c-0.62-0.62-0.62-1.63,0-2.25     c0.62-0.62,1.63-0.62,2.25,0l0.82,0.82c0.62,0.62,0.62,1.63,0,2.25C112.97,55.67,112.57,55.83,112.16,55.83z"></path>		</g>	</g></g></svg>