<svg xmlns="http://www.w3.org/2000/svg" xmlns:xlink="http://www.w3.org/1999/xlink" id="Object" x="0px" y="0px" viewBox="0 0 140 140" style="enable-background:new 0 0 140 140;" xml:space="preserve"><style type="text/css">	.st0{fill:#CCAF89;}</style><g>	<path class="st0" d="M38.44,112.08h4.84c1.64-1.89,2.65-4.36,2.65-7.06c0-5.95-4.84-10.79-10.79-10.79s-10.79,4.84-10.79,10.79   c0,2.7,1,5.16,2.65,7.06h4.84c-2.65-1.25-4.5-3.94-4.5-7.06c0-4.3,3.5-7.8,7.8-7.8s7.8,3.5,7.8,7.8   C42.94,108.14,41.09,110.83,38.44,112.08z"></path>	<path class="st0" d="M92.8,112.08h4.88c1.65-1.89,2.66-4.36,2.66-7.06c0-5.93-4.82-10.75-10.75-10.75   c-5.93,0-10.75,4.82-10.75,10.75c0,2.7,1.01,5.17,2.66,7.06h4.88c-2.68-1.22-4.55-3.92-4.55-7.06c0-4.28,3.48-7.76,7.76-7.76   s7.76,3.48,7.76,7.76C97.35,108.16,95.48,110.86,92.8,112.08z"></path>	<path class="st0" d="M87.25,82.88c0.41-0.03,0.8-0.23,1.05-0.55l5.14-6.37c0.25-0.31,0.37-0.7,0.32-1.1c-0.04-0.4-0.24-0.75-0.55-1   c-0.31-0.25-0.7-0.37-1.1-0.32c-0.4,0.04-0.75,0.24-1,0.55l-4.73,5.86l-5.36,0.39l0.35-6.3c0.02-0.4-0.11-0.78-0.38-1.08   c-0.27-0.3-0.63-0.47-1.03-0.5c-0.41-0.02-0.78,0.11-1.08,0.38c-0.3,0.27-0.47,0.63-0.5,1.03l-0.37,6.73l-13.16,1.51l1.3-7.67   c0.14-0.81-0.41-1.58-1.22-1.72c-0.81-0.14-1.58,0.41-1.72,1.22l-1.43,8.45l-14.41,0.73l-6.14-0.58l-1.59-1.21   c-0.27-0.21-0.59-0.31-0.9-0.31c-0.45,0-0.9,0.2-1.19,0.59c-0.24,0.32-0.35,0.71-0.29,1.11s0.26,0.75,0.57,0.99l1.93,1.47   c0.22,0.17,0.49,0.27,0.76,0.3l6.64,0.64c0.05,0.01,0.1,0.01,0.14,0.01l0.07,0l15.74-0.8l0.18,0.49l-0.06-0.5l16.34-1.88   L87.25,82.88z"></path>	<path class="st0" d="M15.05,93.51c-0.4,0.04-0.76,0.22-1.01,0.53s-0.38,0.69-0.34,1.09c0.07,0.82,0.79,1.44,1.62,1.35   c4.64-0.42,5.26-0.76,5.5-0.89l6.74-3.94c0.94-0.53,1.44-1.55,1.28-2.62c-0.17-1.07-0.96-1.9-2.03-2.11l-0.11-0.02l-2.38-0.29   c-0.06-0.01-0.12-0.01-0.18-0.01c-0.75,0-1.39,0.56-1.48,1.32c-0.08,0.69,0.33,1.36,0.99,1.59l1.03,0.35l-5.31,3.08   C18.72,93.12,16.66,93.37,15.05,93.51z"></path>	<path class="st0" d="M48.88,105.01c-0.82,0-1.49,0.67-1.49,1.49s0.67,1.49,1.49,1.49h25.44c0.82,0,1.49-0.67,1.49-1.49   s-0.67-1.49-1.49-1.49H48.88z"></path>	<path class="st0" d="M103.21,104.42c0.21,0.09,0.71,0.3,2.83,0.04c1.96-0.25,2.61-0.62,2.92-0.89c0.54-0.4,3.13-2.47,3.74-5.38   c0.57-2.74-0.6-9.29-0.84-10.58c-0.03-0.17-0.09-0.33-0.18-0.48c-0.85-1.44-5.22-8.82-7.82-12.21l-0.34-0.44l0.47-0.29   c0.18-0.11,0.36-0.22,0.51-0.31c1.48-0.88,2.54-1.62,2.37-2.89c-0.12-0.86-0.76-1.45-1.92-1.77c-6.73-1.83-20.66-2.47-30.55-2.47   c-13.99,0-16.88,1.09-29.06,5.67l-0.78,0.32c-7.99,3.49-26.98,11.79-30.67,13.5c-1.92,0.89-3.32,2.57-3.85,4.62l-1.71,6.6   c-0.46,2.32,0.1,4.46,1.6,6.29c1.95,2.38,5.23,3.85,7.15,3.85h2.92c0.82,0,1.49-0.67,1.49-1.49c0-0.82-0.67-1.49-1.49-1.49h-2.92   c-0.77,0-3.34-0.94-4.84-2.76c-0.93-1.13-1.26-2.33-1.01-3.67l1.7-6.57c0.31-1.18,1.11-2.15,2.22-2.66   c4.3-2,30.72-13.52,30.98-13.64l0.26-0.1c12.06-4.54,14.57-5.48,28.01-5.48c8.27,0,19.66,0.45,26.79,1.72l1.08,0.19l-0.85,0.69   c-0.71,0.57-1.08,1.15-1.18,1.81c-0.09,0.65,0.12,1.28,0.59,1.79c2.12,2.28,7.85,11.98,8.1,12.39l0.06,0.17   c0.5,2.77,1.12,7.47,0.79,9.07c-0.32,1.54-1.83,3.01-2.58,3.58l-0.12,0.07c-0.14,0.21-0.46,0.29-0.67,0.16   c-0.69,0.12-1.6,0.21-2.08,0.22l-0.15-0.02c-0.13-0.04-0.28-0.06-0.42-0.06c-0.82,0-1.49,0.67-1.49,1.49   C102.27,103.62,102.64,104.17,103.21,104.42z"></path>	<path class="st0" d="M12.86,95.88l0.72-2.78c-0.11,0.09-0.22,0.19-0.31,0.31c-0.43,0.51-0.63,1.16-0.57,1.82   C12.72,95.46,12.78,95.67,12.86,95.88z"></path>	<path class="st0" d="M23.96,86.13c0.32-0.14,0.65-0.28,0.97-0.43l-0.51-0.06c-0.21-0.03-0.41-0.02-0.61,0.01   c-0.49,0.06-0.94,0.26-1.3,0.57c-0.26,0.22-0.48,0.5-0.63,0.82c0.3-0.13,0.6-0.27,0.91-0.4C23.19,86.47,23.57,86.3,23.96,86.13z"></path>	<path class="st0" d="M106.05,88.03c0.46-0.68,0.29-1.61-0.39-2.08l-5.22-3.56l0.99-1.82c0.39-0.72,0.12-1.63-0.6-2.02   c-0.23-0.12-0.47-0.18-0.71-0.18c-0.53,0-1.04,0.28-1.32,0.78l-1.63,3.01c-0.37,0.68-0.16,1.51,0.47,1.95l6.33,4.32   C104.64,88.87,105.61,88.68,106.05,88.03z"></path>	<path class="st0" d="M101.89,78.12c0.15,0.22,0.31,0.45,0.48,0.69C102.25,78.56,102.09,78.33,101.89,78.12z"></path>	<path class="st0" d="M101.93,79.06c-0.1-0.23-0.25-0.45-0.44-0.63C101.64,78.63,101.78,78.84,101.93,79.06z"></path>	<path class="st0" d="M9.65,35.34h88.29c-0.21-0.34-0.35-0.72-0.38-1.14c-0.05-0.66,0.17-1.31,0.6-1.81   c0.01-0.02,0.03-0.03,0.04-0.04H9.65c-1.5,0-2.72-1.22-2.72-2.72c0-1.5,1.22-2.72,2.72-2.72h99.74c4.54,0,8.93,1.35,12.69,3.89   l2.28,1.54h-22.44l3.46,2.99h22.09v19.07l2.41,2.08c0.25,0.21,0.44,0.47,0.58,0.74V33.67c0-0.5-0.25-0.96-0.66-1.24l-6.05-4.09   c-4.26-2.88-9.23-4.4-14.37-4.4H9.65c-3.15,0-5.7,2.56-5.7,5.7C3.95,32.78,6.51,35.34,9.65,35.34z"></path>	<path class="st0" d="M130.47,112.08V59.53c-0.09,0.17-0.19,0.33-0.32,0.49c-0.47,0.55-1.16,0.86-1.89,0.86   c-0.27,0-0.53-0.05-0.78-0.13v33.65l-0.16,0.15L108,112.08h4.44l15.03-13.65v13.65H130.47z"></path>	<path class="st0" d="M99.86,35.84l0.58,0.5l26.04,22.48l0.5,0.43l0.3,0.26c0.06,0.05,0.13,0.07,0.2,0.11   c0.6,0.37,1.44,0.28,1.91-0.26c0.54-0.62,0.47-1.57-0.16-2.11l-1.75-1.51l-0.5-0.43l-0.5-0.43l-21.46-18.53l-0.58-0.5l-0.58-0.5   l-2.84-2.45c-0.27-0.24-0.62-0.36-0.97-0.36c-0.04,0-0.07,0-0.11,0c-0.4,0.03-0.76,0.21-1.02,0.51c-0.26,0.3-0.39,0.69-0.36,1.09   c0.03,0.4,0.21,0.76,0.51,1.02l0.22,0.19L99.86,35.84z"></path>	<path class="st0" d="M135.04,113.08h-3.57h-0.5h-0.5h-2.99h-16.13h-4.44h-0.74h-0.67h-7.37h-0.7h-0.74H82.51h-0.74h-0.69H43.72   h-0.69h-0.74H27.98h-0.74h-0.69H4.96c-0.82,0-1.49,0.67-1.49,1.49c0,0.82,0.67,1.49,1.49,1.49h26.08h1.75h4.67h1.75h46.41h1.87   c0.68,0.13,1.38,0.2,2.09,0.2s1.41-0.07,2.09-0.2h1.87h11.93h0.7h1.29h21.49h1.31h0.68h4.08c0.82,0,1.49-0.67,1.49-1.49   C136.53,113.75,135.86,113.08,135.04,113.08z"></path></g></svg>