<svg xmlns="http://www.w3.org/2000/svg" xmlns:xlink="http://www.w3.org/1999/xlink" id="Layer_3" x="0px" y="0px" viewBox="0 0 140 140" style="enable-background:new 0 0 140 140;" xml:space="preserve"><style type="text/css">	.st0{fill:#CCAF89;}</style><path class="st0" d="M119.13,66.41c-7.17,0-13.38-4.86-15.1-11.82c-0.15-0.59-0.67-1-1.28-1c-0.61,0-1.14,0.41-1.28,1  c-1.73,6.96-7.93,11.83-15.1,11.83S73,61.54,71.28,54.58c-0.15-0.59-0.67-1-1.28-1c-0.61,0-1.13,0.41-1.28,1  c-1.73,6.96-7.94,11.82-15.1,11.82c-7.16,0-13.37-4.86-15.1-11.82c-0.15-0.59-0.67-1-1.28-1c-0.61,0-1.13,0.41-1.28,1  c-1.73,6.96-7.94,11.82-15.1,11.82c-6.65,0-12.47-4.19-14.66-10.36l-2.57,0.64C6.12,64.03,13,69.04,20.86,69.04  c6.09,0,11.73-3.01,15.11-8.05l1.27-1.9l1.27,1.9c3.38,5.04,9.02,8.05,15.11,8.05c6.09,0,11.73-3.01,15.11-8.05l1.27-1.9l1.27,1.9  c3.38,5.04,9.03,8.05,15.11,8.05c6.08,0,11.73-3.01,15.1-8.05l1.27-1.9l1.27,1.9c3.38,5.04,9.03,8.05,15.11,8.05  c7.86,0,14.74-5.01,17.23-12.35l-2.57-0.64C131.61,62.22,125.78,66.41,119.13,66.41z"></path><path class="st0" d="M87.65,81.28c-0.15-0.59-0.67-1-1.28-1c-0.61,0-1.13,0.41-1.28,1C83.37,88.24,77.16,93.1,70,93.1  c-7.16,0-13.37-4.86-15.1-11.82c-0.15-0.59-0.67-1-1.28-1c-0.61,0-1.13,0.41-1.28,1c-1.73,6.96-7.94,11.82-15.1,11.82  c-6.65,0-12.47-4.19-14.66-10.35l-2.57,0.64c2.48,7.34,9.36,12.35,17.23,12.35c6.08,0,11.73-3.01,15.11-8.05l1.27-1.9l1.27,1.9  c3.38,5.04,9.03,8.05,15.11,8.05c6.08,0,11.73-3.01,15.11-8.05l1.27-1.9l1.27,1.9c3.38,5.04,9.03,8.05,15.11,8.05  c7.87,0,14.74-5.01,17.22-12.35l-2.57-0.64c-2.18,6.17-8.01,10.35-14.66,10.35C95.59,93.1,89.38,88.24,87.65,81.28z"></path></svg>