<svg xmlns="http://www.w3.org/2000/svg" xmlns:xlink="http://www.w3.org/1999/xlink" id="Object" x="0px" y="0px" viewBox="0 0 70 70" style="enable-background:new 0 0 70 70;" xml:space="preserve"><style type="text/css">	.st0{fill:#ccaf89;}</style><path class="st0" d="M35,63.77C19.13,63.77,6.23,50.86,6.23,35C6.23,19.13,19.13,6.23,35,6.23c15.87,0,28.77,12.91,28.77,28.77  C63.77,50.86,50.87,63.77,35,63.77z M35,9.1C20.72,9.1,9.1,20.72,9.1,35c0,14.28,11.62,25.9,25.9,25.9S60.9,49.28,60.9,35  C60.9,20.72,49.28,9.1,35,9.1z"></path><path class="st0" d="M45.19,41.73l0.33-0.46c0.71-1,1.27-2.09,1.67-3.25c0.02-0.06,0.04-0.12,0.06-0.18l0.04-0.14  c0.07-0.21,0.13-0.42,0.19-0.63c0.03-0.11,0.05-0.21,0.08-0.32l0.02-0.1c0.04-0.18,0.08-0.37,0.12-0.56  c0.03-0.15,0.05-0.3,0.07-0.44c0.03-0.19,0.05-0.37,0.07-0.55c0.01-0.15,0.03-0.3,0.04-0.44c0.01-0.2,0.02-0.4,0.02-0.6  c0-0.06,0-0.12,0.01-0.17c0-0.03,0-0.07,0-0.1c0-0.06-0.01-0.1-0.01-0.14c0-0.16-0.01-0.32-0.02-0.47l-0.01-0.11  c-0.01-0.12-0.01-0.25-0.02-0.37c-0.01-0.13-0.03-0.27-0.05-0.4l-0.02-0.16c-0.02-0.13-0.03-0.26-0.05-0.39  c-0.02-0.12-0.04-0.23-0.07-0.35l-0.03-0.17c-0.03-0.14-0.05-0.28-0.09-0.42c-0.03-0.11-0.06-0.21-0.08-0.32l-0.03-0.09  c-0.05-0.19-0.09-0.35-0.15-0.51c-0.03-0.1-0.07-0.2-0.1-0.29l-0.03-0.1c-0.06-0.17-0.12-0.35-0.19-0.52  c-0.02-0.04-0.03-0.07-0.04-0.11c-0.02-0.05-0.04-0.08-0.05-0.12c-0.02-0.05-0.05-0.1-0.07-0.16c-0.07-0.16-0.14-0.32-0.22-0.48  c-0.06-0.13-0.13-0.25-0.19-0.37c-0.09-0.17-0.17-0.31-0.25-0.46c-0.08-0.14-0.17-0.27-0.25-0.41c-0.08-0.13-0.17-0.26-0.25-0.39  c-0.09-0.13-0.19-0.27-0.29-0.4c-0.09-0.12-0.18-0.24-0.27-0.36c-0.1-0.13-0.21-0.25-0.32-0.38c-0.1-0.11-0.2-0.23-0.3-0.34  c-0.11-0.12-0.22-0.23-0.33-0.34c-0.11-0.11-0.22-0.22-0.34-0.33c-0.11-0.1-0.23-0.21-0.34-0.31c-0.12-0.11-0.24-0.21-0.37-0.31  c-0.12-0.1-0.24-0.19-0.36-0.28c-0.13-0.1-0.26-0.19-0.39-0.28c-0.13-0.09-0.26-0.17-0.39-0.26c-0.13-0.08-0.26-0.17-0.4-0.25  c-0.14-0.08-0.29-0.16-0.44-0.24c-0.13-0.07-0.26-0.14-0.39-0.2c-0.16-0.08-0.33-0.15-0.49-0.23c-0.05-0.02-0.1-0.05-0.15-0.07  c-0.04-0.02-0.07-0.03-0.11-0.05c-0.04-0.01-0.08-0.03-0.12-0.04c-0.17-0.07-0.34-0.13-0.52-0.19l-0.1-0.04  c-0.09-0.03-0.19-0.07-0.28-0.1c-0.17-0.05-0.34-0.1-0.51-0.15l-0.1-0.03c-0.1-0.03-0.21-0.06-0.31-0.08  c-0.14-0.03-0.29-0.06-0.43-0.09L37.4,21.1c-0.12-0.02-0.23-0.05-0.35-0.07c-0.13-0.02-0.26-0.04-0.39-0.05l-0.14-0.02  c-0.14-0.02-0.28-0.04-0.43-0.05c-0.12-0.01-0.25-0.02-0.37-0.02l-0.08,0c-0.19-0.01-0.35-0.02-0.51-0.02c-0.04,0-0.08,0-0.12,0  c-0.1,0-0.18,0-0.26,0l-0.16,0.01c-3.3,0.1-6.4,1.44-8.73,3.77c-1.39,1.39-2.42,3.03-3.06,4.9c-0.02,0.06-0.04,0.11-0.05,0.17  l-0.05,0.15c-0.07,0.21-0.13,0.41-0.19,0.63c-0.03,0.11-0.05,0.22-0.08,0.33l-0.02,0.09c-0.04,0.18-0.08,0.37-0.12,0.56  c-0.03,0.15-0.05,0.3-0.07,0.45c-0.03,0.18-0.05,0.37-0.07,0.55c-0.01,0.15-0.03,0.29-0.04,0.44c-0.01,0.2-0.02,0.4-0.02,0.6  c0,0.06,0,0.12-0.01,0.17c0,0.03,0,0.07,0,0.1c0,0.06,0.01,0.1,0.01,0.14c0,0.17,0.01,0.33,0.02,0.49l0.01,0.11  c0.01,0.12,0.01,0.24,0.02,0.36c0.01,0.14,0.03,0.28,0.05,0.42l0.02,0.15c0.02,0.13,0.03,0.25,0.05,0.38  c0.02,0.12,0.04,0.23,0.07,0.35l0.03,0.17c0.03,0.14,0.06,0.28,0.09,0.42c0.03,0.11,0.05,0.21,0.08,0.32l0.03,0.1  c0.05,0.19,0.1,0.35,0.15,0.51c0.03,0.09,0.06,0.19,0.1,0.28l0.04,0.1c0.06,0.17,0.12,0.35,0.19,0.52l0.04,0.11  c0.02,0.05,0.04,0.08,0.05,0.12c0.02,0.05,0.05,0.1,0.07,0.15c0.07,0.16,0.14,0.33,0.22,0.49c0.06,0.13,0.13,0.25,0.2,0.38  c0.09,0.16,0.16,0.3,0.25,0.45c0.08,0.14,0.17,0.27,0.25,0.41c0.08,0.13,0.16,0.26,0.25,0.38c0.09,0.14,0.19,0.27,0.29,0.4  c0.09,0.12,0.18,0.24,0.27,0.36c0.1,0.13,0.21,0.25,0.31,0.37c0.1,0.12,0.2,0.23,0.3,0.34c0.11,0.12,0.22,0.23,0.33,0.34  c0.11,0.11,0.22,0.22,0.34,0.33c0.11,0.11,0.23,0.21,0.35,0.31c0.12,0.11,0.25,0.21,0.37,0.31c0.12,0.09,0.24,0.18,0.36,0.28  c0.13,0.1,0.26,0.19,0.4,0.29c0.13,0.09,0.26,0.17,0.39,0.25c0.13,0.08,0.26,0.17,0.4,0.25c0.15,0.09,0.29,0.16,0.44,0.24l0.05,0.03  c0.11,0.06,0.23,0.12,0.34,0.18c0.16,0.08,0.33,0.15,0.49,0.22c0.05,0.02,0.1,0.05,0.15,0.07c0.03,0.02,0.07,0.03,0.1,0.05  c0.05,0.02,0.08,0.03,0.12,0.04c0.17,0.07,0.35,0.13,0.52,0.19l0.11,0.04c0.09,0.03,0.18,0.06,0.27,0.09  c0.16,0.05,0.32,0.1,0.49,0.14l0.13,0.04c0.1,0.03,0.2,0.06,0.3,0.08c0.15,0.03,0.29,0.06,0.44,0.09l0.15,0.03  c0.12,0.02,0.24,0.05,0.35,0.07c0.12,0.02,0.24,0.03,0.36,0.05l0.17,0.02c0.14,0.02,0.29,0.04,0.43,0.05  c0.12,0.01,0.24,0.02,0.37,0.02l0.08,0c0.17,0.01,0.34,0.02,0.51,0.02c0.04,0,0.08,0,0.12,0c0.1,0,0.19,0,0.28,0l0.14-0.01  c1.51-0.05,2.99-0.36,4.41-0.92l0.48-0.19l7.13,3.57L45.19,41.73z M33.09,43.35c-0.12-0.02-0.24-0.05-0.36-0.08  c-0.08-0.02-0.16-0.04-0.25-0.06l-0.06-0.02c-0.15-0.04-0.27-0.07-0.39-0.11c-0.07-0.02-0.15-0.05-0.23-0.08l-0.06-0.02  c-0.13-0.05-0.26-0.09-0.4-0.15c-0.08-0.03-0.16-0.07-0.24-0.1l-0.05-0.02c-0.13-0.06-0.25-0.11-0.37-0.17  c-0.09-0.05-0.18-0.09-0.27-0.14c-0.14-0.07-0.25-0.13-0.36-0.2c-0.11-0.06-0.21-0.13-0.31-0.19c-0.1-0.06-0.2-0.13-0.29-0.19  c-0.1-0.07-0.2-0.14-0.3-0.22c-0.09-0.07-0.18-0.14-0.27-0.21c-0.1-0.08-0.19-0.16-0.28-0.23c-0.09-0.08-0.18-0.15-0.26-0.23  c-0.09-0.08-0.17-0.17-0.26-0.25c-0.08-0.08-0.17-0.17-0.25-0.26c-0.08-0.08-0.15-0.17-0.23-0.26c-0.08-0.09-0.16-0.19-0.24-0.29  c-0.07-0.09-0.14-0.18-0.21-0.27c-0.08-0.1-0.15-0.2-0.22-0.31c-0.06-0.09-0.13-0.19-0.19-0.29c-0.07-0.1-0.13-0.21-0.19-0.31  c-0.06-0.1-0.12-0.21-0.18-0.32c-0.06-0.11-0.11-0.21-0.16-0.31c-0.06-0.12-0.11-0.24-0.16-0.36l-0.02-0.05  c-0.04-0.08-0.07-0.16-0.11-0.25c-0.05-0.13-0.1-0.26-0.14-0.38l-0.02-0.05c-0.03-0.08-0.06-0.17-0.09-0.25  c-0.04-0.11-0.07-0.23-0.1-0.34l-0.02-0.09c-0.02-0.09-0.05-0.18-0.07-0.27c-0.03-0.11-0.05-0.22-0.07-0.33l-0.02-0.09  c-0.02-0.1-0.04-0.2-0.06-0.3c-0.02-0.1-0.03-0.19-0.04-0.29l-0.01-0.11c-0.01-0.11-0.03-0.21-0.04-0.32  c-0.01-0.09-0.01-0.19-0.02-0.28l0-0.06c-0.01-0.14-0.01-0.26-0.01-0.39c0-0.06,0-0.13,0-0.19l0-0.06c0-0.24,0.02-0.47,0.04-0.7  l0.01-0.06c0-0.05,0.01-0.11,0.01-0.16c0.03-0.31,0.08-0.59,0.13-0.86c0.01-0.04,0.02-0.08,0.03-0.12c0.06-0.26,0.12-0.49,0.19-0.72  c0.02-0.08,0.05-0.17,0.08-0.25c0.07-0.22,0.15-0.43,0.23-0.64c0.03-0.08,0.05-0.12,0.07-0.17c0.12-0.28,0.25-0.55,0.39-0.8  l0.03-0.06c0.12-0.22,0.27-0.46,0.43-0.7l0.09-0.13c0.15-0.22,0.31-0.44,0.48-0.64l0.06-0.07c0.38-0.46,0.81-0.89,1.28-1.28  l0.05-0.04c0.21-0.17,0.43-0.33,0.65-0.49l0.13-0.09c0.23-0.16,0.47-0.3,0.7-0.43c0.01-0.01,0.04-0.03,0.07-0.04  c0.23-0.12,0.49-0.25,0.77-0.37c0.04-0.02,0.09-0.04,0.14-0.06l0.05-0.02c0.2-0.08,0.41-0.16,0.62-0.23  c0.09-0.03,0.18-0.06,0.27-0.08c0.22-0.06,0.44-0.12,0.66-0.17c0.09-0.02,0.13-0.03,0.18-0.04c0.26-0.05,0.55-0.1,0.84-0.13  c0.06-0.01,0.12-0.01,0.17-0.02l0.07-0.01c0.23-0.02,0.45-0.03,0.67-0.03l0.07,0c0.07,0,0.14,0,0.21,0c0.13,0,0.25,0.01,0.37,0.01  l0.05,0c0.1,0,0.21,0.01,0.31,0.02c0.1,0.01,0.2,0.02,0.3,0.03l0.1,0.01c0.11,0.01,0.21,0.03,0.32,0.04  c0.09,0.01,0.18,0.03,0.27,0.05l0.12,0.02c0.11,0.02,0.22,0.04,0.32,0.07c0.09,0.02,0.17,0.04,0.26,0.07l0.05,0.01  c0.15,0.04,0.27,0.08,0.39,0.11c0.08,0.02,0.15,0.05,0.22,0.08l0.06,0.02c0.13,0.05,0.27,0.09,0.4,0.15  c0.09,0.03,0.17,0.07,0.26,0.11c0.14,0.06,0.27,0.12,0.39,0.18c0.1,0.05,0.2,0.1,0.3,0.16c0.11,0.06,0.22,0.12,0.33,0.18  c0.1,0.06,0.2,0.12,0.31,0.19c0.09,0.06,0.19,0.12,0.29,0.19c0.1,0.07,0.2,0.14,0.3,0.22c0.09,0.07,0.19,0.14,0.28,0.21  c0.1,0.08,0.19,0.16,0.28,0.24c0.08,0.07,0.17,0.15,0.26,0.23c0.09,0.08,0.17,0.16,0.25,0.25c0.09,0.09,0.17,0.18,0.25,0.26  c0.08,0.08,0.15,0.17,0.23,0.26c0.08,0.09,0.16,0.19,0.24,0.29c0.07,0.09,0.14,0.18,0.21,0.27c0.07,0.1,0.15,0.2,0.22,0.3  c0.06,0.09,0.13,0.19,0.19,0.29c0.07,0.1,0.13,0.2,0.19,0.31c0.06,0.11,0.12,0.22,0.18,0.32c0.06,0.11,0.11,0.21,0.16,0.31  c0.06,0.12,0.11,0.24,0.17,0.36c0.04,0.09,0.08,0.19,0.13,0.29c0.05,0.13,0.1,0.26,0.14,0.38l0.03,0.08  c0.03,0.07,0.05,0.15,0.08,0.22c0.04,0.13,0.08,0.26,0.11,0.39l0.01,0.05c0.02,0.09,0.05,0.18,0.07,0.27  c0.02,0.11,0.05,0.21,0.07,0.32l0.02,0.11c0.02,0.09,0.04,0.19,0.05,0.28c0.02,0.1,0.03,0.2,0.04,0.3l0.01,0.11  c0.01,0.1,0.02,0.21,0.03,0.31c0.01,0.09,0.01,0.18,0.02,0.27l0,0.06c0.01,0.13,0.01,0.26,0.01,0.39c0,0.06,0,0.12,0,0.18l0,0.08  c0,0.24-0.02,0.47-0.04,0.7l-0.01,0.06c0,0.05-0.01,0.11-0.01,0.16c-0.03,0.31-0.08,0.59-0.13,0.86c-0.01,0.04-0.02,0.08-0.03,0.12  c-0.06,0.26-0.12,0.49-0.19,0.72c-0.02,0.08-0.05,0.17-0.08,0.26c-0.07,0.21-0.15,0.43-0.23,0.63c-0.03,0.09-0.05,0.13-0.07,0.18  c-0.12,0.27-0.25,0.54-0.38,0.79l-0.04,0.06c-0.12,0.22-0.27,0.46-0.42,0.7l-0.06,0.08c-0.18,0.26-0.34,0.48-0.51,0.68l-0.05,0.06  c-0.39,0.47-0.82,0.9-1.29,1.29l-0.06,0.05c-0.21,0.17-0.42,0.33-0.65,0.49l-0.13,0.08c-0.23,0.15-0.47,0.3-0.7,0.43l-0.04,0.02  c-0.26,0.14-0.52,0.27-0.81,0.39l-0.18,0.07c-0.21,0.09-0.42,0.16-0.63,0.23c-0.09,0.03-0.18,0.06-0.27,0.09  c-0.22,0.06-0.44,0.12-0.66,0.17c-0.08,0.02-0.12,0.03-0.17,0.04c-0.27,0.05-0.55,0.1-0.85,0.13c-0.07,0.01-0.13,0.01-0.19,0.02  l-0.06,0.01c-0.22,0.02-0.44,0.03-0.66,0.03l-0.07,0c-0.06,0-0.11,0-0.17,0c-0.01,0-0.03,0-0.04,0c-0.12,0-0.23-0.01-0.34-0.01  l-0.08,0c-0.1,0-0.2-0.01-0.3-0.02c-0.11-0.01-0.22-0.02-0.33-0.04 M33.79,43.47c-0.11-0.01-0.23-0.03-0.34-0.05  c-0.1-0.02-0.2-0.04-0.3-0.06"></path></svg>