<svg xmlns="http://www.w3.org/2000/svg" xmlns:xlink="http://www.w3.org/1999/xlink" id="Object" x="0px" y="0px" viewBox="0 0 70 70" style="enable-background:new 0 0 70 70;" xml:space="preserve"><style type="text/css">	.st0{fill:#ccaf89;}</style><g>	<rect x="58.95" y="24.65" class="st0" width="2.1" height="38.32"></rect>	<rect x="42.28" y="40.86" class="st0" width="2.1" height="22.1"></rect>	<rect x="8.95" y="49.97" class="st0" width="2.1" height="12.99"></rect>	<path class="st0" d="M60,7.04c-3.18,0-5.77,2.59-5.77,5.77c0,0.79,0.16,1.56,0.47,2.27l0.14,0.33l-8.61,8.61l-0.34-0.17   c-1.49-0.74-3.23-0.8-4.77-0.16c-0.83,0.34-1.55,0.86-2.13,1.53l-0.25,0.28l-6.35-2.63l0.02-0.37c0.01-0.13,0.01-0.26,0.01-0.39   c0-3.18-2.59-5.77-5.77-5.77c-3.18,0-5.77,2.59-5.77,5.77c0,0.79,0.16,1.56,0.47,2.28l0.14,0.33l-8.61,8.61l-0.34-0.17   c-0.8-0.4-1.66-0.6-2.56-0.6c-3.18,0-5.77,2.59-5.77,5.77c0,3.18,2.59,5.77,5.77,5.77c3.18,0,5.77-2.59,5.77-5.77   c0-0.9-0.2-1.76-0.6-2.56L15,35.44l8.49-8.49l0.35,0.2c0.86,0.49,1.84,0.74,2.83,0.74c1.66,0,3.25-0.72,4.34-1.97l0.25-0.28   l6.35,2.63l-0.03,0.37c-0.06,0.89,0.08,1.76,0.43,2.59c0.59,1.42,1.7,2.53,3.12,3.12c1.42,0.59,2.99,0.59,4.41,0   c2.16-0.89,3.56-2.98,3.56-5.33v-0.11c-0.01-0.34-0.04-0.69-0.11-1.03c-0.07-0.36-0.18-0.72-0.33-1.07   c-0.05-0.12-0.1-0.24-0.16-0.35l-0.16-0.33l8.49-8.49l0.35,0.19c0.86,0.49,1.84,0.74,2.83,0.74c3.18,0,5.77-2.59,5.77-5.77   S63.18,7.04,60,7.04z M10,42c-2.02,0-3.67-1.64-3.67-3.67c0-2.02,1.64-3.67,3.67-3.67c2.02,0,3.67,1.65,3.67,3.67   C13.67,40.35,12.02,42,10,42z M26.67,25.78c-2.02,0-3.67-1.64-3.67-3.67c0-2.02,1.64-3.67,3.67-3.67c2.02,0,3.67,1.64,3.67,3.67   C30.33,24.14,28.69,25.78,26.67,25.78z M43.33,32.69c-2.02,0-3.67-1.64-3.67-3.67c0-2.02,1.64-3.67,3.67-3.67   c2.02,0,3.67,1.64,3.67,3.67C47,31.04,45.35,32.69,43.33,32.69z M60,16.47c-2.02,0-3.67-1.64-3.67-3.67c0-2.02,1.65-3.67,3.67-3.67   s3.67,1.64,3.67,3.67C63.67,14.83,62.02,16.47,60,16.47z"></path>	<rect x="25.62" y="33.96" class="st0" width="2.1" height="29"></rect></g></svg>