<svg xmlns="http://www.w3.org/2000/svg" xmlns:xlink="http://www.w3.org/1999/xlink" id="Object" x="0px" y="0px" viewBox="0 0 70 70" style="enable-background:new 0 0 70 70;" xml:space="preserve"><style type="text/css">	.st0{fill:#ccaf89;stroke:#ccaf89;stroke-width:0.25;stroke-miterlimit:10;}</style><g>	<g>		<path class="st0" d="M63.08,29.17H40.96V6.92c0-0.48-0.39-0.88-0.88-0.88H9.64c-0.48,0-0.88,0.39-0.88,0.88v24.47    c0,0.48,0.39,0.88,0.88,0.88c0.48,0,0.88-0.39,0.88-0.88V7.8H39.2v49.01H14.58v-3.41c3.81-0.44,6.78-3.67,6.78-7.59    c0-3.91-6.23-12.66-6.95-13.64c-0.33-0.46-1.09-0.46-1.42,0c-0.71,0.98-6.95,9.73-6.95,13.64c0,3.92,2.97,7.15,6.78,7.59    c0,4.9,0,5.2,0,8.79l-5.9,0.01c-0.48,0-0.88,0.39-0.88,0.88c0,0.48,0.39,0.88,0.88,0.88h0c0,0,55.89,0,56.16,0    c0.48,0,0.88-0.39,0.88-0.88V30.05C63.96,29.56,63.56,29.17,63.08,29.17z M39.2,58.57v3.58H14.58v-3.58H39.2z M7.8,45.82    c0-2.52,3.77-8.51,5.9-11.6c2.13,3.09,5.9,9.08,5.9,11.6c0,2.95-2.19,5.39-5.02,5.82v-5.07c0-0.48-0.39-0.88-0.88-0.88    c-0.48,0-0.88,0.39-0.88,0.88v5.07C9.98,51.21,7.8,48.77,7.8,45.82z M48.51,62.15V48.74h6.13v13.41H48.51z M62.2,62.2h-5.8V47.86    c0-0.48-0.39-0.88-0.88-0.88h-7.89c-0.48,0-0.88,0.39-0.88,0.88V62.2h-5.8V30.92H62.2V62.2z"></path>		<path class="st0" d="M15.2,19.41h6.78c0.48,0,0.88-0.39,0.88-0.88V11.6c0-0.48-0.39-0.88-0.88-0.88H15.2    c-0.48,0-0.88,0.39-0.88,0.88v6.93C14.32,19.02,14.71,19.41,15.2,19.41z M16.07,12.48h5.02v5.17h-5.02V12.48z"></path>		<path class="st0" d="M27.74,19.41h6.78c0.48,0,0.88-0.39,0.88-0.88V11.6c0-0.48-0.39-0.88-0.88-0.88h-6.78    c-0.48,0-0.88,0.39-0.88,0.88v6.93C26.86,19.02,27.25,19.41,27.74,19.41z M28.62,12.48h5.02v5.17h-5.02V12.48z"></path>		<path class="st0" d="M14.32,30.04c0,0.48,0.39,0.88,0.88,0.88h6.78c0.48,0,0.88-0.39,0.88-0.88v-6.93c0-0.48-0.39-0.88-0.88-0.88    H15.2c-0.48,0-0.88,0.39-0.88,0.88V30.04z M16.07,23.99h5.02v5.17h-5.02V23.99z"></path>		<path class="st0" d="M26.86,30.04c0,0.48,0.39,0.88,0.88,0.88h6.78c0.48,0,0.88-0.39,0.88-0.88v-6.93c0-0.48-0.39-0.88-0.88-0.88    h-6.78c-0.48,0-0.88,0.39-0.88,0.88V30.04z M28.62,23.99h5.02v5.17h-5.02V23.99z"></path>		<path class="st0" d="M26.86,41.35c0,0.48,0.39,0.88,0.88,0.88h6.78c0.48,0,0.88-0.39,0.88-0.88v-6.93c0-0.48-0.39-0.88-0.88-0.88    h-6.78c-0.48,0-0.88,0.39-0.88,0.88V41.35z M28.62,35.3h5.02v5.17h-5.02V35.3z"></path>		<path class="st0" d="M26.86,52.65c0,0.48,0.39,0.88,0.88,0.88h6.78c0.48,0,0.88-0.39,0.88-0.88v-6.93c0-0.48-0.39-0.88-0.88-0.88    h-6.78c-0.48,0-0.88,0.39-0.88,0.88V52.65z M28.62,46.6h5.02v5.17h-5.02V46.6z"></path>		<path class="st0" d="M44.24,41.62h5.71c0.48,0,0.88-0.39,0.88-0.88v-5.71c0-0.48-0.39-0.88-0.88-0.88h-5.71    c-0.48,0-0.88,0.39-0.88,0.88v5.71C43.36,41.22,43.76,41.62,44.24,41.62z M45.12,35.9h3.96v3.96h-3.96V35.9z"></path>		<path class="st0" d="M53.43,41.62h5.71c0.48,0,0.88-0.39,0.88-0.88v-5.71c0-0.48-0.39-0.88-0.88-0.88h-5.71    c-0.48,0-0.88,0.39-0.88,0.88v5.71C52.55,41.22,52.94,41.62,53.43,41.62z M54.3,35.9h3.96v3.96H54.3V35.9z"></path>	</g>	<path class="st0" d="M51.31,26.89c-0.26,0-0.51-0.1-0.7-0.28l-7.14-6.8c-0.41-0.39-0.42-1.03-0.04-1.44   c0.39-0.41,1.04-0.42,1.44-0.04l6.33,6.03l10.53-13.41c0.35-0.44,0.99-0.52,1.43-0.17c0.44,0.35,0.52,0.99,0.17,1.43L52.12,26.5   c-0.18,0.23-0.44,0.37-0.73,0.39C51.36,26.89,51.34,26.89,51.31,26.89z"></path></g></svg>