<svg xmlns="http://www.w3.org/2000/svg" xmlns:xlink="http://www.w3.org/1999/xlink" id="Layer_1" x="0px" y="0px" viewBox="0 0 140 140" style="enable-background:new 0 0 140 140;" xml:space="preserve"><style type="text/css">	.st0{fill:#CCAF89;}</style><g>	<path class="st0" d="M132.02,102.06c0.11,0,0.22,0,0.33,0c0.42-0.02,0.79-0.32,0.86-0.7c0.1-0.47-0.09-0.9-0.46-1.06   c-0.18-0.08-0.43-0.12-0.69-0.12c-30.24-0.01-60.48-0.01-90.72-0.01h-9.15l0.86-1.81c0.06-0.13,0.11-0.24,0.17-0.35l8.12-15.75   c3.59-6.97,7.19-13.94,10.77-20.91c0.36-0.69,0.9-1.03,1.67-1.03c0,0,0,0,0,0c10.75,0.01,21.49,0.01,32.23,0.01h6.02l0,7.57   c0,0.68,0.37,1.06,1.04,1.06c2.84,0.01,5.49,0.01,8.08,0c0.85,0,1.04-0.58,1.04-1.06c0-1.36,0-2.72,0-4.08l0-3.49l28.96,0   c0.13,0,0.26,0,0.39,0c0.27,0,0.52,0.01,0.77-0.01c0.41-0.02,0.65-0.17,0.83-0.51c0.22-0.42,0.09-0.75-0.01-0.91   c-0.18-0.29-0.51-0.46-0.89-0.46c-7.08,0-14.16,0-21.24,0l-8.77,0V44.28l24.3,0c1.93,0,3.86,0,5.79,0c0.45,0,0.82-0.29,0.9-0.7   c0.08-0.4-0.04-0.89-0.49-1.07c-0.18-0.07-0.46-0.11-0.76-0.11c-18.95-0.01-37.9-0.01-56.86-0.01h-8.52l0.68-1.71   c0.05-0.12,0.09-0.23,0.13-0.33l2.14-4.85c1.47-3.34,2.94-6.67,4.4-10.01c4.4-10.05,14.33-16.55,25.3-16.55l33.04,0   c0.49,0,0.87-0.29,0.95-0.71c0.09-0.53-0.15-0.95-0.63-1.13c-0.04-0.02-0.09-0.03-0.13-0.05H97.76l-0.03,0.01   c-0.12,0.02-0.25,0.05-0.37,0.06c-0.41,0.05-0.82,0.09-1.23,0.13c-0.84,0.09-1.64,0.17-2.42,0.32   c-8.65,1.73-15.31,6.39-19.78,13.86c-1,1.67-1.81,3.52-2.6,5.32c-0.2,0.47-0.41,0.93-0.61,1.39c-2.21,4.93-4.39,9.94-6.44,14.65   c-0.11,0.25-0.16,0.53-0.14,0.73c0.07,0.64,0.61,0.77,1.05,0.77l26.83,0v14.16l-9.46,0c-10.08,0-20.17,0-30.26-0.01c0,0,0,0,0,0   c-0.61,0-0.91,0.19-1.18,0.71c-0.62,1.23-1.25,2.45-1.88,3.67l-3.46,6.7c-5.34,10.36-10.69,20.73-16.02,31.09   c-0.08,0.15-0.13,0.37-0.13,0.56c-0.02,3.49-0.01,7.08-0.01,10.24c0,0.81,0.55,0.98,1,0.98c1.69,0,3.38,0,5.07,0l2.25,0h1.68   l0,11.35c0,0.73,0.34,1.08,1.06,1.08c2.68,0.01,5.36,0.01,8.04,0c0.73,0,1.06-0.34,1.06-1.07l0-11.33h51.9l0,4.52   c0,2.21,0,4.43,0,6.64c0,0.93,0.31,1.24,1.23,1.24c2.58,0,5.15,0,7.73,0c0.94,0,1.24-0.31,1.24-1.27l0-9.48   c0-0.14,0.01-0.27,0.01-0.42l0.06-1.26h6.36c4.66,0,9.33,0,13.99,0c0.49,0,0.88-0.32,0.93-0.77c0.06-0.57-0.21-0.97-0.72-1.08   c-0.14-0.03-0.35-0.03-0.56-0.03c-29.23,0-58.46,0-87.7,0h-12.7v-8.45L132.02,102.06z M93.95,44.32h6.33v22.7h-6.33V44.32z    M103.64,112.43h6.31v10.47h-6.31V112.43z M41.54,112.43h6.33v10.47h-6.33V112.43z"></path>	<path class="st0" d="M44.69,125.21c-1.34,0-2.68,0-4.02-0.01c-0.92,0-1.43-0.52-1.43-1.45l0-10.98l-3.55,0c-1.69,0-3.38,0-5.07,0   c-0.86,0-1.38-0.51-1.38-1.35c0-3.16-0.01-6.74,0.01-10.24c0-0.25,0.06-0.53,0.17-0.73c5.26-10.22,10.52-20.43,15.79-30.65   l3.69-7.15c0.63-1.22,1.26-2.44,1.87-3.66c0.33-0.65,0.77-0.92,1.51-0.92c10.09,0.01,20.17,0.01,30.26,0.01l9.09,0V44.66l-26.46,0   c-0.83,0-1.34-0.4-1.42-1.11c-0.03-0.26,0.04-0.61,0.17-0.92c2.05-4.71,4.24-9.73,6.44-14.66c0.2-0.44,0.39-0.88,0.59-1.33   l0.03-0.06c0.79-1.81,1.61-3.67,2.62-5.36c4.53-7.56,11.27-12.29,20.03-14.04c0.8-0.16,1.6-0.24,2.46-0.33   c0.41-0.04,0.82-0.08,1.22-0.13c0.12-0.01,0.23-0.04,0.35-0.06l0.1-0.01h34.79l0.07,0.03c0.04,0.02,0.07,0.03,0.11,0.04   c0.65,0.24,0.98,0.83,0.87,1.54c-0.1,0.6-0.64,1.03-1.32,1.03l-33.04,0c-10.82,0-20.62,6.41-24.96,16.32   c-1.46,3.34-2.93,6.68-4.4,10.01l-2.14,4.85c-0.04,0.1-0.08,0.2-0.13,0.32l-0.48,1.21l16.24,0c16.2,0,32.39,0,48.59,0.01   c0.25,0,0.61,0.02,0.9,0.14c0.65,0.26,0.83,0.94,0.72,1.49c-0.11,0.59-0.64,1-1.27,1c-1.93,0.01-3.86,0-5.79,0l-23.92,0v13.41   l10.03,0c6.53,0,13.07,0,19.6,0c0.52,0,0.96,0.24,1.21,0.64c0.23,0.39,0.24,0.85,0.02,1.28c-0.24,0.46-0.6,0.69-1.14,0.71   c-0.24,0.01-0.49,0.01-0.75,0.01c-0.17,0-0.29,0-0.42,0l-28.58,0l0,3.11c0,1.36,0,2.72,0,4.08c0,0.9-0.53,1.43-1.41,1.44   c-2.58,0.01-5.23,0.01-8.09,0c-0.87,0-1.41-0.55-1.41-1.43l0-7.19h-5.64c-10.75,0-21.49,0-32.23-0.01c-0.63,0-1.05,0.26-1.34,0.83   c-3.55,6.91-7.12,13.82-10.68,20.73l-8.21,15.92c-0.05,0.1-0.1,0.21-0.16,0.33l-0.61,1.27h8.56c30.24,0,60.48,0,90.72,0.01   c0.32,0,0.61,0.05,0.84,0.15c0.54,0.23,0.81,0.82,0.68,1.48c-0.11,0.56-0.62,0.98-1.22,1c-0.11,0-0.22,0-0.33,0l-0.02-0.37v0.37   l-100.1,0v7.7h26.94c24.36,0,48.72,0,73.08,0c0.24,0,0.46,0,0.64,0.04c0.7,0.15,1.1,0.74,1.02,1.49c-0.07,0.64-0.62,1.1-1.3,1.1   c-4.66,0-9.33,0-13.99,0h-6l-0.04,0.9c-0.01,0.14-0.01,0.27-0.01,0.4l0,9.48c0,1.17-0.47,1.64-1.62,1.64c-2.58,0-5.15,0-7.73,0   c-1.12,0-1.6-0.48-1.6-1.62l0-6.64l0-4.15H50.15l0,10.96c0,0.93-0.51,1.44-1.44,1.44C47.37,125.21,46.03,125.21,44.69,125.21z    M37.94,112.03h2.05l0,11.72c0,0.53,0.17,0.7,0.68,0.7c2.68,0.01,5.36,0.01,8.04,0c0.52,0,0.69-0.18,0.69-0.7l0-11.71h52.65   l0,11.54c0,0.72,0.14,0.87,0.86,0.87c2.58,0,5.15,0,7.73,0c0.73,0,0.87-0.14,0.87-0.9l0-9.48c0-0.14,0.01-0.28,0.02-0.44l0.07-1.61   h6.72c4.66,0,9.33,0,13.99,0c0.29,0,0.53-0.18,0.56-0.43c0.04-0.38-0.1-0.6-0.43-0.68c-0.11-0.02-0.34-0.02-0.48-0.02   c-24.36,0-48.72,0-73.08,0H31.18v-9.2l100.87,0c0.1,0,0.2,0,0.29,0c0.24-0.01,0.47-0.19,0.51-0.4c0.06-0.3-0.04-0.55-0.24-0.64   c-0.13-0.06-0.33-0.09-0.55-0.09c-30.24-0.01-60.48-0.01-90.72-0.01H31.6l1.12-2.34c0.06-0.13,0.12-0.25,0.17-0.36l8.21-15.92   c3.56-6.91,7.13-13.82,10.68-20.73c0.42-0.82,1.1-1.24,2.01-1.24c10.75,0.01,21.49,0.01,32.24,0.01h6.39l0,7.94   c0,0.47,0.21,0.68,0.67,0.69c2.86,0.01,5.5,0.01,8.08,0c0.47,0,0.66-0.2,0.66-0.69c0-1.36,0-2.72,0-4.08l0-3.86l29.33,0   c0.13,0,0.26,0,0.4,0c0.28,0,0.52,0.01,0.74-0.01c0.28-0.01,0.4-0.09,0.51-0.31c0.1-0.2,0.1-0.38,0-0.54   c-0.11-0.18-0.32-0.28-0.57-0.28c-6.53,0-13.07,0-19.6,0l-10.78,0V43.91l24.67,0c1.93,0,3.86,0,5.79,0c0.27,0,0.49-0.16,0.53-0.4   c0.04-0.19,0.02-0.54-0.26-0.65c-0.14-0.06-0.37-0.09-0.62-0.09c-16.2-0.01-32.39-0.01-48.59-0.01l-17.34,0l0.88-2.23   c0.05-0.13,0.09-0.24,0.14-0.34l2.14-4.85c1.47-3.34,2.94-6.67,4.4-10.01C78.06,15.14,88.12,8.55,99.24,8.55l33.04,0   c0.31,0,0.54-0.16,0.58-0.4c0.04-0.24,0.01-0.57-0.39-0.71c-0.02-0.01-0.05-0.02-0.07-0.03h-34.6c-0.14,0.03-0.27,0.05-0.39,0.07   c-0.41,0.05-0.83,0.09-1.24,0.14c-0.84,0.09-1.63,0.17-2.39,0.32c-8.54,1.71-15.12,6.31-19.54,13.69   c-0.99,1.65-1.79,3.49-2.57,5.28l-0.03,0.06c-0.2,0.45-0.39,0.89-0.59,1.33c-2.2,4.93-4.39,9.94-6.44,14.65   c-0.09,0.21-0.13,0.43-0.11,0.54c0.02,0.14,0.05,0.44,0.68,0.44l27.21,0v14.91l-9.83,0c-10.08,0-20.17,0-30.26-0.01   c-0.47,0-0.65,0.11-0.85,0.51c-0.62,1.23-1.25,2.45-1.88,3.67l-3.69,7.15c-5.27,10.21-10.53,20.43-15.79,30.65   c-0.05,0.1-0.09,0.26-0.09,0.4c-0.02,3.5-0.01,7.08-0.01,10.24c0,0.36,0.11,0.61,0.63,0.61c1.69,0,3.38,0,5.07,0L37.94,112.03z    M110.32,123.28h-7.06v-11.22h7.06V123.28z M104.01,122.53h5.56v-9.72h-5.56V122.53z M48.24,123.28h-7.07v-11.22h7.07V123.28z    M41.91,122.53h5.58v-9.72h-5.58V122.53z M100.65,67.39h-7.07V43.94h7.07V67.39z M94.32,66.64h5.58V44.69h-5.58V66.64z"></path></g><g>	<path class="st0" d="M8.33,87.34c0.07-0.01,0.15-0.01,0.22-0.01c0.06,0,0.12-0.01,0.18-0.01c2.52-0.21,4.66-0.68,6.52-1.44   c1.36-0.56,2.61-1.32,3.7-2.26l0.68-0.59l1.06,0.8c0.23,0.17,0.45,0.34,0.67,0.5c2.58,1.86,5.13,2.86,7.8,3.05   c0.57,0.04,0.8-0.05,0.98-0.19c0.31-0.26,0.44-0.66,0.32-1.03c-0.12-0.39-0.42-0.62-0.81-0.64c-1.84-0.1-3.59-0.6-5.22-1.49   c-1.69-0.92-3.1-2.11-4.15-3.03c-0.18-0.16-0.47-0.35-0.79-0.33c-0.32,0.02-0.58,0.25-0.73,0.43c-0.9,1.07-2.02,1.95-3.34,2.61   c-1.66,0.84-3.54,1.36-5.93,1.64c-0.46,0.05-0.97,0.11-1.5,0.12c-0.71,0.01-1.07,0.23-1.27,0.82v0.31   C7.1,87.4,7.24,87.43,8.33,87.34z"></path>	<path class="st0" d="M29.42,87.75c-0.09,0-0.18,0-0.28-0.01c-2.75-0.19-5.36-1.21-7.99-3.12c-0.21-0.15-0.42-0.31-0.63-0.47   l-0.86-0.64L19.2,83.9c-1.12,0.97-2.4,1.75-3.81,2.32c-1.9,0.78-4.07,1.26-6.63,1.47c-0.06,0.01-0.12,0.01-0.19,0.01   c-0.09,0.01-0.15,0.01-0.21,0.01h0c-1.21,0.1-1.52,0.03-1.98-0.98l-0.03-0.07V86.2l0.02-0.06c0.25-0.73,0.75-1.06,1.62-1.07   c0.51-0.01,1.01-0.06,1.45-0.12c2.35-0.28,4.19-0.78,5.81-1.6c1.27-0.64,2.35-1.49,3.22-2.52c0.29-0.34,0.63-0.54,0.99-0.57   c0.36-0.03,0.72,0.12,1.06,0.42c1.03,0.92,2.43,2.08,4.08,2.99c1.58,0.86,3.29,1.35,5.06,1.45c0.55,0.03,0.98,0.37,1.15,0.91   c0.16,0.52,0,1.07-0.43,1.43C30.15,87.66,29.86,87.75,29.42,87.75z M19.62,82.55l1.35,1.01c0.21,0.16,0.42,0.31,0.62,0.46   c2.52,1.82,5.01,2.79,7.61,2.98c0.54,0.04,0.65-0.06,0.71-0.11c0.2-0.17,0.27-0.4,0.2-0.63c-0.08-0.24-0.24-0.37-0.48-0.38   c-1.89-0.1-3.7-0.62-5.38-1.54c-1.72-0.94-3.15-2.14-4.22-3.08c-0.1-0.09-0.31-0.25-0.51-0.23c-0.2,0.01-0.38,0.19-0.47,0.3   c-0.93,1.11-2.1,2.02-3.46,2.7c-1.7,0.86-3.62,1.39-6.05,1.68c-0.47,0.06-1,0.12-1.54,0.12c-0.59,0.01-0.77,0.17-0.9,0.51v0.16   c0.26,0.55,0.29,0.55,1.2,0.47c0.07-0.01,0.13-0.01,0.2-0.01c0.09-0.01,0.14-0.01,0.2-0.01c2.48-0.21,4.58-0.67,6.41-1.41   c1.33-0.54,2.54-1.28,3.6-2.19L19.62,82.55z"></path></g><g>	<path class="st0" d="M14.89,106.87c0.08-0.07,0.16-0.12,0.25-0.18l0.76-0.54l0.83,0.71c0.1,0.09,0.19,0.17,0.29,0.25   c1.81,1.51,3.52,2.26,5.36,2.34c0.58,0.03,1-0.33,1.05-0.9c0.02-0.23-0.06-0.46-0.21-0.64c-0.17-0.2-0.4-0.31-0.67-0.33   c-1.36-0.1-2.58-0.58-3.63-1.43c-0.89-0.72-1.72-1.53-2.42-2.24c-0.26-0.26-0.57-0.4-0.86-0.37c-0.29,0.02-0.55,0.19-0.77,0.49   c-0.26,0.35-0.65,0.87-1.14,1.32c-1.41,1.31-3.25,2.02-5.62,2.18c-0.91,0.06-1.21,0.35-1.38,0.87v0.23   c0.02,0.04,0.03,0.09,0.05,0.14c0.15,0.47,0.49,0.72,0.98,0.7c0.41-0.02,0.82-0.05,1.2-0.11C11.4,109.01,13.35,108.2,14.89,106.87z   "></path>	<path class="st0" d="M7.68,109.82c-0.61,0-1.08-0.35-1.27-0.96c-0.01-0.04-0.02-0.07-0.04-0.11l-0.03-0.07l0.02-0.42   c0.24-0.74,0.74-1.06,1.71-1.13c2.28-0.15,4.05-0.83,5.4-2.08c0.46-0.43,0.84-0.92,1.09-1.26c0.28-0.39,0.65-0.61,1.04-0.64   c0.39-0.03,0.8,0.14,1.15,0.48c0.7,0.7,1.52,1.5,2.39,2.21c0.99,0.8,2.14,1.25,3.42,1.34c0.36,0.03,0.69,0.19,0.92,0.46   c0.22,0.26,0.33,0.59,0.3,0.92c-0.07,0.77-0.66,1.28-1.44,1.25c-1.93-0.09-3.7-0.86-5.58-2.43c-0.1-0.08-0.19-0.16-0.29-0.25   l-0.61-0.52l-0.52,0.37c-0.08,0.05-0.15,0.11-0.22,0.16h0c-1.6,1.38-3.61,2.22-6.14,2.56c-0.39,0.05-0.81,0.09-1.23,0.11   C7.74,109.82,7.71,109.82,7.68,109.82z M7.1,108.54c0.01,0.03,0.02,0.06,0.03,0.09c0.1,0.31,0.29,0.46,0.6,0.43   c0.4-0.02,0.79-0.05,1.17-0.1c2.38-0.32,4.26-1.1,5.75-2.38l0,0c0.09-0.07,0.18-0.14,0.28-0.21l0.99-0.7l1.05,0.9   c0.1,0.09,0.19,0.17,0.29,0.24c1.75,1.46,3.38,2.17,5.13,2.25c0.38,0.02,0.62-0.19,0.66-0.56c0.01-0.13-0.03-0.26-0.13-0.37   c-0.1-0.12-0.25-0.19-0.41-0.2c-1.44-0.1-2.73-0.61-3.84-1.51c-0.9-0.73-1.74-1.55-2.45-2.26c-0.18-0.18-0.39-0.28-0.56-0.27   c-0.22,0.02-0.4,0.19-0.5,0.34c-0.27,0.36-0.68,0.9-1.18,1.37c-1.48,1.37-3.39,2.11-5.86,2.28c-0.76,0.05-0.93,0.26-1.03,0.56   V108.54z"></path></g><g>	<path class="st0" d="M127.3,89.31c0.02,0.07,0.08,0.22,0.08,0.43l0,0.83c0,0.53,0,1.05,0.01,1.58c0.01,0.5,0.33,0.88,0.8,0.94   c0.22,0.03,0.52,0.02,0.76-0.19c0.22-0.19,0.34-0.52,0.33-0.91c-0.02-4.69-0.06-9.37-0.09-14.06c0-0.68-0.36-1.03-1.07-1.03   l-31.41,0c-0.82,0-1.15,0.34-1.15,1.17l0,1.86c0,1.62-0.01,3.25,0.01,4.87c0.02,2.49,0.05,4.96,0.09,7.35   c0.01,0.56,0.4,0.95,0.94,0.95c0,0,0.01,0,0.01,0c0.53,0,0.92-0.39,0.94-0.94c0.01-0.32,0.01-0.65,0.01-0.98c0-0.16,0-0.31,0-0.47   v-2.23h29.5L127.3,89.31z M99.23,86.57c-0.01,0-0.01,0-0.02,0c-0.23,0-0.8-0.01-1.23-0.44c-0.44-0.44-0.44-1.03-0.44-1.22   c0-1.04-0.02-2.11-0.05-3.14c-0.01-0.43-0.02-0.85-0.03-1.27c0-0.13,0-0.25,0-0.39l0-1.3h29.81v7.76h-5.74   C114.1,86.56,106.66,86.56,99.23,86.57z"></path>	<path class="st0" d="M96.61,93.47c-0.76-0.01-1.32-0.56-1.33-1.32c-0.03-2.25-0.07-4.8-0.09-7.36c-0.01-1.58-0.01-3.17-0.01-4.75   l0-1.98c0-1.04,0.5-1.54,1.53-1.54l31.41,0c0.91,0,1.43,0.51,1.44,1.4c0.03,4.69,0.07,9.37,0.09,14.06c0,0.5-0.16,0.93-0.46,1.19   c-0.27,0.24-0.63,0.34-1.05,0.28c-0.66-0.08-1.12-0.62-1.13-1.3c-0.01-0.5-0.01-1-0.01-1.5l0-0.91c0-0.14-0.04-0.25-0.06-0.31   l-0.01-0.02l-0.17-0.56H97.93l0,2.37c0,0.32,0,0.63-0.01,0.95C97.89,92.92,97.34,93.47,96.61,93.47z M96.72,77.26   c-0.61,0-0.78,0.17-0.78,0.8l0,1.98c0,1.58,0,3.16,0.01,4.75c0.02,2.55,0.06,5.1,0.09,7.35c0.01,0.35,0.23,0.58,0.57,0.58   c0.34,0,0.56-0.23,0.57-0.58c0.01-0.3,0.01-0.61,0.01-0.91l0-3.12h30.16l0.32,1.09c0.03,0.09,0.09,0.28,0.09,0.54l0,0.91   c0,0.5,0,1,0.01,1.49c0,0.32,0.19,0.53,0.48,0.57c0.14,0.02,0.33,0.01,0.46-0.1c0.13-0.12,0.21-0.35,0.21-0.63   c-0.02-4.69-0.06-9.37-0.09-14.06c0-0.48-0.19-0.66-0.69-0.66L96.72,77.26z M99.23,86.94H99.2c-0.23,0-0.94,0-1.49-0.55   c-0.37-0.37-0.55-0.87-0.55-1.49c0-1.03-0.02-2.08-0.05-3.11c-0.01-0.45-0.02-0.88-0.03-1.31c0-0.13,0-0.26,0-0.4l0-1.68h30.56   v8.51h-6.11C114.1,86.93,106.66,86.93,99.23,86.94z M97.83,79.17l0,0.93c0,0.13,0,0.25,0,0.38c0.01,0.42,0.02,0.85,0.03,1.27   c0.02,1.05,0.05,2.12,0.05,3.15c0,0.17,0,0.62,0.33,0.96c0.3,0.3,0.69,0.33,0.96,0.33l0.02,0.37l0-0.37   c7.44-0.01,14.87-0.01,22.31-0.01h5.36v-7.01H97.83z"></path></g><g>	<path class="st0" d="M87.8,81.18c-0.01-0.7,0-1.4,0-2.1l0-1.01c0-0.88-0.31-1.19-1.17-1.19H55.35c-0.84,0-1.17,0.32-1.17,1.15   l0,1.02c0,1.58-0.01,3.15,0,4.72c0.02,2.91,0.06,5.85,0.09,8.34c0,0.14,0.03,0.28,0.06,0.39c0.14,0.41,0.58,0.64,1.07,0.56   c0.42-0.07,0.74-0.45,0.75-0.88c0.01-0.59,0.01-1.18,0-1.78l0-1.93H86l0,1.81c0,0.58,0,1.14,0,1.69c0,0.17,0,0.31,0.02,0.39   c0.1,0.46,0.54,0.77,1.03,0.71c0.49-0.05,0.84-0.42,0.83-0.9c-0.01-2.25-0.03-4.5-0.05-6.76C87.83,84.01,87.81,82.6,87.8,81.18z    M85.89,86.53H56.15v-7.72h29.73V86.53z"></path>	<path class="st0" d="M55.22,93.47c-0.56,0-1.05-0.32-1.23-0.83c-0.05-0.15-0.08-0.33-0.09-0.51c-0.03-2.49-0.07-5.43-0.09-8.35   c-0.01-1.56-0.01-3.11,0-4.67l0-1.07c0-1.04,0.49-1.52,1.54-1.52h31.28c1.07,0,1.55,0.48,1.55,1.56l0,1.01c0,0.7,0,1.4,0,2.09l0,0   c0.01,1.41,0.02,2.83,0.03,4.24c0.02,2.25,0.04,4.5,0.05,6.76c0,0.67-0.49,1.21-1.17,1.28c-0.68,0.07-1.29-0.34-1.44-1   c-0.02-0.1-0.03-0.24-0.03-0.46c0-0.57,0-1.12,0-1.7l0-1.44h-29.1l0,1.56c0,0.6,0,1.19,0,1.79c-0.01,0.61-0.46,1.15-1.07,1.25   C55.38,93.46,55.3,93.47,55.22,93.47z M55.35,77.26c-0.64,0-0.79,0.15-0.79,0.78l0,1.07c0,1.56-0.01,3.11,0,4.67   c0.02,2.92,0.06,5.85,0.09,8.34c0,0.09,0.02,0.2,0.04,0.27c0.08,0.24,0.35,0.37,0.65,0.32c0.24-0.04,0.43-0.26,0.44-0.52   c0.01-0.59,0.01-1.18,0-1.77l0-2.31h30.59l0,2.19c0,0.58,0,1.13,0,1.69c0,0.12,0,0.27,0.01,0.31c0.06,0.27,0.32,0.45,0.62,0.42   c0.31-0.03,0.5-0.24,0.5-0.53c-0.01-2.25-0.03-4.5-0.05-6.75c-0.01-1.42-0.02-2.83-0.03-4.25l0,0c-0.01-0.7,0-1.4,0-2.1l0-1.01   c0-0.67-0.14-0.81-0.8-0.81H55.35z M86.26,86.9H55.78v-8.47h30.48V86.9z M56.53,86.15h28.98v-6.97H56.53V86.15z"></path></g><g>	<path class="st0" d="M22.04,43.51c2.39,2.41,5.57,3.73,8.95,3.74c0.01,0,0.02,0,0.02,0c6.98,0,12.67-5.63,12.68-12.55   c0.01-3.42-1.3-6.63-3.68-9.05c-2.38-2.42-5.54-3.75-8.91-3.76c-0.01,0-0.01,0-0.02,0c-7.02,0-12.73,5.67-12.75,12.65   C18.33,37.92,19.65,41.11,22.04,43.51z M23.39,26.99c2.06-2.06,4.76-3.2,7.63-3.2c0,0,0.01,0,0.01,0   c5.92,0.01,10.75,4.83,10.77,10.75c0.02,5.92-4.8,10.78-10.75,10.81c-0.02,0-0.05,0-0.07,0c-2.82,0-5.48-1.1-7.51-3.11   c-2.07-2.04-3.22-4.76-3.23-7.65C20.23,31.75,21.34,29.05,23.39,26.99z"></path>	<path class="st0" d="M31.02,47.63c-3.5-0.01-6.78-1.37-9.24-3.85h0c-2.47-2.48-3.82-5.76-3.81-9.24   c0.02-7.18,5.9-13.02,13.12-13.02c3.49,0.01,6.75,1.38,9.2,3.87c2.45,2.49,3.8,5.8,3.79,9.32C44.06,41.83,38.2,47.63,31.02,47.63z    M22.31,43.25c2.32,2.33,5.41,3.62,8.69,3.63c6.8,0,12.32-5.46,12.33-12.18c0.01-3.32-1.26-6.44-3.57-8.79   c-2.31-2.34-5.38-3.64-8.65-3.64c-6.83,0-12.38,5.51-12.39,12.28C18.71,37.82,19.98,40.91,22.31,43.25L22.31,43.25z M30.99,45.73   c-2.91,0-5.68-1.14-7.78-3.22c-2.14-2.11-3.33-4.93-3.34-7.92c-0.02-2.95,1.14-5.74,3.26-7.87l0,0c2.13-2.14,4.93-3.31,7.89-3.31   c6.14,0.01,11.14,5,11.16,11.12c0.02,6.13-4.97,11.15-11.12,11.19L30.99,45.73z M23.66,27.25L23.66,27.25   c-1.98,1.99-3.06,4.59-3.04,7.34c0.02,2.79,1.12,5.41,3.12,7.39c1.96,1.94,4.53,3,7.25,3l0.07,0c5.74-0.04,10.39-4.72,10.37-10.44   c-0.02-5.72-4.68-10.37-10.4-10.38C28.26,24.16,25.64,25.26,23.66,27.25z"></path></g><g>	<path class="st0" d="M92.67,125.51c-2.86-0.14-5.67-0.93-8.35-2.36c-2.31-1.23-4.55-2.86-7.07-5.14c-0.2-0.18-0.5-0.4-0.81-0.4   c-0.01,0-0.03,0-0.04,0c-0.34,0.02-0.65,0.31-0.85,0.54c-0.53,0.63-1.05,1.17-1.59,1.65c-2.26,2.07-5.12,3.54-8.72,4.51   c-2.84,0.76-5.67,1.03-7.83,1.19c-0.26,0.02-0.58,0.13-0.79,0.28c-0.32,0.22-0.35,0.68-0.22,1.01c0.13,0.33,0.46,0.64,0.9,0.59   c0.39-0.04,0.77-0.08,1.16-0.11c1.61-0.15,3.27-0.31,4.86-0.59c5.24-0.93,9.34-2.89,12.52-5.99l0.72-0.7l1.08,0.88   c2.27,1.88,4.41,3.3,6.53,4.34c2.69,1.32,5.49,2.05,8.3,2.18c0.48,0.02,0.69-0.16,0.83-0.32c0.28-0.32,0.33-0.6,0.18-0.97   C93.3,125.7,93.07,125.53,92.67,125.51z"></path>	<path class="st0" d="M57.19,127.77c-0.57,0-0.99-0.41-1.16-0.84c-0.18-0.47-0.12-1.12,0.36-1.46c0.26-0.19,0.65-0.32,0.98-0.34   c2.14-0.15,4.95-0.43,7.76-1.18c3.55-0.95,6.35-2.39,8.57-4.42c0.52-0.48,1.03-1.01,1.55-1.62c0.25-0.29,0.64-0.64,1.11-0.67   l0.07,0c0.34,0,0.7,0.17,1.06,0.49c2.49,2.26,4.71,3.88,6.99,5.09c2.64,1.4,5.39,2.18,8.19,2.32c0.55,0.03,0.91,0.29,1.12,0.82   c0.2,0.5,0.13,0.94-0.25,1.36c-0.18,0.2-0.48,0.48-1.13,0.44c-2.87-0.13-5.71-0.87-8.45-2.21c-2.15-1.06-4.31-2.49-6.6-4.39   l-0.82-0.67l-0.48,0.47c-3.24,3.16-7.4,5.15-12.72,6.09c-1.6,0.28-3.27,0.44-4.88,0.6c-0.39,0.04-0.78,0.07-1.16,0.11   C57.28,127.76,57.23,127.77,57.19,127.77z M76.44,117.99c-0.18,0.01-0.4,0.16-0.61,0.41c-0.54,0.64-1.07,1.19-1.62,1.69   c-2.31,2.11-5.21,3.61-8.88,4.59c-2.87,0.77-5.73,1.04-7.9,1.2c-0.2,0.01-0.45,0.1-0.6,0.21c-0.15,0.11-0.17,0.38-0.09,0.57   c0.06,0.15,0.23,0.39,0.51,0.36c0.39-0.04,0.78-0.08,1.16-0.11c1.6-0.15,3.25-0.31,4.83-0.59c5.17-0.92,9.2-2.84,12.33-5.89   l0.96-0.93l1.34,1.09c2.25,1.86,4.36,3.27,6.46,4.3c2.65,1.3,5.39,2.02,8.15,2.14c0.34,0.01,0.46-0.11,0.53-0.19   c0.19-0.21,0.21-0.35,0.12-0.59c-0.12-0.29-0.24-0.34-0.46-0.35h0c-2.91-0.14-5.78-0.95-8.51-2.4c-2.33-1.24-4.6-2.89-7.14-5.19   C76.79,118.1,76.58,117.99,76.44,117.99z"></path></g><g>	<path class="st0" d="M42.71,131.01c-2.27-0.1-4.46-0.7-6.69-1.86c-3.09-1.61-5.56-3.87-7.36-5.66c-0.26-0.25-0.55-0.38-0.84-0.36   c-0.26,0.02-0.5,0.16-0.68,0.41c-1.91,2.54-4.5,4.46-7.7,5.68c-2.61,1-5.48,1.57-9.02,1.78c-0.54,0.03-0.74,0.25-0.87,0.48   c-0.18,0.32-0.18,0.69,0,1c0.1,0.16,0.32,0.42,0.76,0.4c1.61-0.09,3.25-0.26,4.87-0.53c3.48-0.58,6.37-1.66,8.81-3.3   c0.8-0.53,1.55-1.15,2.35-1.79c0.37-0.3,0.75-0.61,1.14-0.91l0.73-0.57l0.75,0.66c0.06,0.06,0.15,0.13,0.24,0.21   c1.97,1.77,3.85,3.11,5.75,4.11c2.64,1.39,5.17,2.09,7.73,2.15c0.27,0,0.5-0.07,0.67-0.23c0.17-0.16,0.26-0.39,0.27-0.67   C43.62,131.44,43.25,131.03,42.71,131.01z"></path>	<path class="st0" d="M42.68,133.27c-2.63-0.06-5.21-0.78-7.91-2.19c-1.93-1.01-3.83-2.37-5.83-4.16c-0.08-0.08-0.17-0.15-0.23-0.2   l-0.52-0.46l-0.49,0.38c-0.39,0.3-0.76,0.61-1.14,0.91c-0.8,0.65-1.56,1.27-2.37,1.81c-2.49,1.67-5.42,2.77-8.96,3.36   c-1.63,0.27-3.29,0.45-4.91,0.54c-0.46,0.02-0.86-0.18-1.1-0.58c-0.26-0.43-0.26-0.94-0.01-1.38c0.17-0.29,0.45-0.62,1.17-0.66   c3.5-0.21,6.33-0.77,8.91-1.76c3.13-1.2,5.67-3.07,7.53-5.56c0.25-0.34,0.58-0.53,0.95-0.55c0.39-0.04,0.8,0.13,1.13,0.47   c1.78,1.77,4.22,4,7.27,5.59c2.17,1.13,4.31,1.73,6.53,1.82l0,0c0.74,0.03,1.28,0.6,1.26,1.36c-0.01,0.37-0.14,0.7-0.38,0.93   C43.38,133.15,43.06,133.26,42.68,133.27z M28.22,125.28l0.99,0.86c0.06,0.06,0.15,0.13,0.24,0.21c1.95,1.75,3.8,3.07,5.67,4.06   c2.59,1.36,5.06,2.05,7.57,2.11c0.17,0,0.31-0.04,0.4-0.13c0.1-0.09,0.15-0.23,0.15-0.4c0.01-0.35-0.21-0.59-0.55-0.6   c-2.33-0.1-4.57-0.72-6.84-1.91c-3.14-1.63-5.63-3.92-7.45-5.72c-0.18-0.18-0.37-0.27-0.55-0.25c-0.16,0.01-0.29,0.1-0.41,0.26   c-1.95,2.6-4.6,4.56-7.86,5.81c-2.65,1.02-5.55,1.59-9.13,1.81c-0.42,0.03-0.5,0.17-0.57,0.29c-0.12,0.2-0.12,0.43,0,0.61   c0.15,0.24,0.35,0.22,0.42,0.22c1.6-0.08,3.22-0.26,4.83-0.53c3.43-0.57,6.26-1.63,8.66-3.24c0.78-0.52,1.53-1.13,2.32-1.77   c0.38-0.31,0.76-0.61,1.15-0.92L28.22,125.28z"></path></g><g>	<path class="st0" d="M102.65,13.62c-0.25,0-0.49,0.1-0.7,0.31C94.97,20.9,88,27.88,81.02,34.85c-0.27,0.27-0.35,0.68-0.2,1.04   c0.15,0.34,0.49,0.56,0.86,0.56c0,0,0.01,0,0.01,0h0c0.2,0,0.45-0.05,0.77-0.36c1.84-1.84,3.68-3.69,5.52-5.53l5.09-5.09   c3.39-3.39,6.78-6.77,10.16-10.16c0.22-0.22,0.34-0.49,0.35-0.75c0-0.25-0.1-0.48-0.29-0.67   C103.12,13.71,102.89,13.62,102.65,13.62z"></path>	<path class="st0" d="M81.7,36.83c-0.54,0-1.02-0.31-1.22-0.79c-0.22-0.5-0.11-1.07,0.28-1.46c6.98-6.98,13.96-13.96,20.94-20.93   c0.53-0.53,1.37-0.54,1.88-0.03c0.27,0.27,0.4,0.59,0.4,0.94c-0.01,0.36-0.17,0.72-0.46,1.01c-3.39,3.39-6.77,6.78-10.16,10.16   l-5.09,5.09c-1.84,1.84-3.68,3.68-5.52,5.53C82.32,36.77,81.97,36.83,81.7,36.83L81.7,36.83z M102.65,13.99   c-0.15,0-0.31,0.07-0.43,0.2c-6.98,6.98-13.96,13.95-20.94,20.93c-0.16,0.17-0.21,0.41-0.12,0.63c0.09,0.21,0.29,0.34,0.52,0.34   c0.1,0,0.27,0,0.52-0.25c1.84-1.84,3.68-3.69,5.52-5.53l5.09-5.09c3.39-3.39,6.78-6.77,10.16-10.16c0.15-0.15,0.24-0.33,0.24-0.49   c0-0.14-0.06-0.28-0.18-0.4C102.93,14.05,102.79,13.99,102.65,13.99z"></path></g><g>	<path class="st0" d="M97.83,33.14l12.36-12.36c0.26-0.26,0.29-0.47,0.28-0.65l0-0.04c0-0.24-0.07-0.68-0.53-0.86   c-0.17-0.07-0.32-0.1-0.45-0.1c-0.23,0-0.43,0.1-0.63,0.29c-4.13,4.13-8.27,8.25-12.39,12.39c-0.2,0.2-0.31,0.45-0.3,0.72   c0,0.25,0.1,0.48,0.29,0.66C96.84,33.57,97.42,33.54,97.83,33.14z"></path>	<path class="st0" d="M97.1,33.83c-0.32,0-0.65-0.12-0.9-0.37c-0.26-0.25-0.4-0.58-0.4-0.93c0-0.36,0.14-0.71,0.41-0.98   c4.12-4.14,8.25-8.27,12.39-12.39c0.42-0.42,0.88-0.51,1.48-0.28c0.49,0.19,0.77,0.63,0.77,1.21l0,0.03   c0.01,0.23-0.03,0.56-0.39,0.92L98.09,33.4C97.81,33.69,97.45,33.83,97.1,33.83z M109.49,19.51c-0.09,0-0.2,0.02-0.36,0.18   c-4.13,4.13-8.26,8.25-12.39,12.39c-0.13,0.13-0.2,0.29-0.2,0.45c0,0.15,0.06,0.29,0.17,0.4c0.24,0.23,0.59,0.21,0.85-0.05   l12.36-12.36c0.18-0.18,0.18-0.28,0.17-0.37l0-0.05c0-0.4-0.22-0.49-0.29-0.52C109.68,19.53,109.57,19.51,109.49,19.51z"></path></g><g>	<path class="st0" d="M52.12,35.7c-0.07,1.42-0.29,2.86-0.7,4.39l1.81,0.59c0.47-1.73,0.73-3.37,0.79-4.99H52.12z"></path>	<path class="st0" d="M53.49,41.16l-2.52-0.82L51.06,40c0.4-1.51,0.62-2.92,0.69-4.32l0.02-0.36h2.65l-0.01,0.39   c-0.06,1.65-0.32,3.31-0.8,5.07L53.49,41.16z M51.87,39.85l1.1,0.36c0.37-1.43,0.58-2.79,0.66-4.13h-1.15   C52.4,37.3,52.2,38.54,51.87,39.85z"></path></g><g>	<path class="st0" d="M44.12,53.52c1.41-0.98,2.68-2.07,3.82-3.31l-1.46-1.23c-1.02,1.09-2.13,2.06-3.37,2.92L44.12,53.52z"></path>	<path class="st0" d="M44,54.05l-1.4-2.25l0.29-0.2c1.22-0.86,2.3-1.8,3.31-2.87l0.24-0.26l2.03,1.71l-0.27,0.29   c-1.17,1.27-2.44,2.37-3.88,3.37L44,54.05z M43.61,52l0.61,0.98c1.16-0.83,2.2-1.73,3.17-2.75l-0.89-0.75   C45.61,50.42,44.66,51.24,43.61,52z"></path></g><g>	<path class="st0" d="M51.94,24.91c-0.66-1.43-1.81-3.31-2.6-4.34l-1.47,1.24c0.89,1.18,1.66,2.44,2.31,3.81L51.94,24.91z"></path>	<path class="st0" d="M49.98,26.1l-0.15-0.32c-0.64-1.36-1.38-2.58-2.27-3.74l-0.22-0.28l2.04-1.73l0.24,0.31   c0.85,1.1,2.02,3.04,2.65,4.41l0.16,0.36L49.98,26.1z M48.37,21.87c0.75,1.03,1.41,2.1,1.98,3.27l1.08-0.43   c-0.57-1.16-1.44-2.61-2.16-3.6L48.37,21.87z"></path></g><g>	<path class="st0" d="M36.06,12.1l-0.32,1.88c1.45,0.33,2.84,0.81,4.21,1.44l0.9-1.68C39.3,13.01,37.72,12.47,36.06,12.1z"></path>	<path class="st0" d="M40.11,15.91l-0.32-0.15c-1.36-0.63-2.71-1.09-4.14-1.42l-0.34-0.08l0.45-2.61l0.38,0.08   c1.69,0.37,3.29,0.92,4.86,1.66l0.36,0.17L40.11,15.91z M36.16,13.7c1.24,0.31,2.43,0.71,3.62,1.24l0.54-1.02   c-1.29-0.58-2.59-1.03-3.97-1.36L36.16,13.7z"></path></g><g>	<path class="st0" d="M12.23,21.28c-1,1.41-1.81,2.87-2.45,4.42l1.79,0.65c0.3-0.65,0.62-1.33,0.98-1.98   c0.37-0.66,0.78-1.3,1.18-1.92L12.23,21.28z"></path>	<path class="st0" d="M11.76,26.82l-2.48-0.9l0.15-0.36c0.66-1.59,1.47-3.06,2.49-4.5l0.23-0.32l2.08,1.63l-0.19,0.29   c-0.38,0.58-0.8,1.23-1.17,1.89c-0.36,0.66-0.68,1.35-0.96,1.96L11.76,26.82z M10.28,25.49l1.1,0.4c0.25-0.54,0.53-1.12,0.85-1.69   c0.32-0.58,0.68-1.14,1.01-1.65l-0.92-0.72C11.5,23,10.83,24.21,10.28,25.49z"></path></g><g>	<path class="st0" d="M14.66,50.77c1.2,1.21,2.5,2.26,3.93,3.18l0.95-1.65c-1.24-0.81-2.39-1.74-3.46-2.81L14.66,50.77z"></path>	<path class="st0" d="M18.72,54.48l-0.33-0.21c-1.46-0.94-2.77-2-3.99-3.23l-0.28-0.28l1.97-1.78l0.25,0.25   c1.06,1.06,2.18,1.96,3.4,2.76l0.3,0.19L18.72,54.48z M15.2,50.78c1.01,0.99,2.08,1.86,3.26,2.64l0.58-1   c-1.06-0.71-2.04-1.51-2.97-2.41L15.2,50.78z"></path></g><g>	<path class="st0" d="M25.56,14.17l-0.39-1.86c-1.67,0.44-3.23,1.04-4.72,1.82l0.96,1.65C22.71,15.1,24.08,14.57,25.56,14.17z"></path>	<path class="st0" d="M21.26,16.27l-1.34-2.29l0.35-0.18c1.52-0.79,3.09-1.4,4.8-1.85l0.38-0.1L26,14.44l-0.34,0.09   c-1.45,0.4-2.79,0.91-4.08,1.57L21.26,16.27z M20.97,14.28l0.59,1c1.14-0.56,2.31-1.01,3.57-1.38l-0.24-1.13   C23.5,13.16,22.21,13.65,20.97,14.28z"></path></g><g>	<path class="st0" d="M10.83,40.78c-0.44-1.46-0.72-2.9-0.85-4.37l-1.9,0.07c0.14,1.71,0.45,3.35,0.96,4.96L10.83,40.78z"></path>	<path class="st0" d="M8.81,41.92l-0.12-0.37c-0.52-1.64-0.83-3.29-0.97-5.04l-0.03-0.39l2.65-0.09l0.03,0.35   c0.12,1.45,0.4,2.85,0.83,4.29l0.1,0.34L8.81,41.92z M8.5,36.84c0.14,1.42,0.4,2.77,0.79,4.11l1.09-0.4   c-0.36-1.25-0.6-2.49-0.73-3.75L8.5,36.84z"></path></g><g>	<path class="st0" d="M28.89,57.5c1.71,0.15,3.38,0.13,5.05-0.08l-0.33-1.87c-0.77,0.06-1.5,0.12-2.25,0.14   c-0.74,0.01-1.48-0.03-2.2-0.06L28.89,57.5z"></path>	<path class="st0" d="M31.06,57.97c-0.73,0-1.46-0.03-2.2-0.1l-0.39-0.04l0.37-2.61l0.34,0.02c0.67,0.04,1.43,0.08,2.17,0.06   c0.75-0.01,1.47-0.07,2.23-0.14l0.34-0.03l0.46,2.6l-0.39,0.05C33.01,57.91,32.04,57.97,31.06,57.97z M29.32,57.15   c1.42,0.11,2.8,0.08,4.18-0.07l-0.2-1.14c-0.65,0.05-1.28,0.1-1.94,0.11c-0.64,0.01-1.29-0.02-1.88-0.05L29.32,57.15z"></path></g></svg>