<svg xmlns="http://www.w3.org/2000/svg" xmlns:xlink="http://www.w3.org/1999/xlink" id="Object" x="0px" y="0px" viewBox="0 0 140 140" style="enable-background:new 0 0 140 140;" xml:space="preserve"><style type="text/css">	.st0{fill:#CCAF89;stroke:#CCAF89;stroke-miterlimit:10;}</style><g id="Main">	<g>		<g>			<path class="st0" d="M131.32,132.33H9.47c-0.53,0-0.96-0.43-0.96-0.96v-8.46c0-0.53,0.43-0.96,0.96-0.96h121.85     c0.53,0,0.96,0.43,0.96,0.96v8.46C132.28,131.9,131.86,132.33,131.32,132.33z M10.43,130.41h119.94v-6.54H10.43V130.41z"></path>		</g>		<g>			<path class="st0" d="M13.49,123.87c-0.53,0-0.96-0.43-0.96-0.96V30.16c0-0.53,0.43-0.96,0.96-0.96c0.53,0,0.96,0.43,0.96,0.96     v92.75C14.45,123.44,14.02,123.87,13.49,123.87z"></path>		</g>		<g>			<path class="st0" d="M127.3,123.87c-0.53,0-0.96-0.43-0.96-0.96V30.16c0-0.53,0.43-0.96,0.96-0.96c0.53,0,0.96,0.43,0.96,0.96     v92.75C128.26,123.44,127.83,123.87,127.3,123.87z"></path>		</g>		<g>			<path class="st0" d="M131.24,31.12H90.51c-0.53,0-0.96-0.43-0.96-0.96c0-0.54,0.43-0.96,0.96-0.96h39.77v-6.44H90.51     c-0.53,0-0.96-0.43-0.96-0.96c0-0.53,0.43-0.96,0.96-0.96h40.73c0.53,0,0.96,0.43,0.96,0.96v8.36     C132.19,30.7,131.77,31.12,131.24,31.12z"></path>		</g>		<g>			<path class="st0" d="M49.46,31.12H8.68c-0.53,0-0.96-0.43-0.96-0.96v-8.35c0-0.53,0.43-0.96,0.96-0.96h40.78     c0.53,0,0.96,0.43,0.96,0.96c0,0.53-0.43,0.96-0.96,0.96H9.64v6.44h39.83c0.53,0,0.96,0.43,0.96,0.96     C50.43,30.71,49.99,31.12,49.46,31.12z"></path>		</g>		<g>			<path class="st0" d="M87.54,50.64H52.42c-2.17,0-3.93-1.76-3.93-3.93V11.6c0-2.17,1.76-3.93,3.93-3.93h35.12     c2.17,0,3.93,1.76,3.93,3.93v35.12C91.47,48.88,89.71,50.64,87.54,50.64z M52.42,9.59c-1.11,0-2,0.9-2,2v35.12c0,1.11,0.9,2,2,2     h35.12c1.11,0,2-0.9,2-2V11.6c0-1.11-0.9-2-2-2H52.42z"></path>		</g>		<g>			<path class="st0" d="M98.67,123.87c-0.53,0-0.96-0.43-0.96-0.96V61.59c0-1.32-1.07-2.39-2.39-2.39H45     c-1.32,0-2.39,1.07-2.39,2.39v61.32c0,0.53-0.43,0.96-0.96,0.96c-0.54,0-0.96-0.43-0.96-0.96V61.59c0-2.38,1.93-4.31,4.31-4.31     h50.32c2.38,0,4.31,1.94,4.31,4.31v61.32C99.63,123.44,99.2,123.87,98.67,123.87z"></path>		</g>		<g>			<path class="st0" d="M90.51,123.87c-0.53,0-0.96-0.43-0.96-0.96V68.55c0-0.9-0.73-1.62-1.62-1.62H52.06     c-0.44,0-0.85,0.17-1.16,0.48c-0.3,0.31-0.47,0.71-0.47,1.15c0.34,54.4,0.1,54.64-0.29,55.03c-0.56,0.56-1.64,0.11-1.64-0.68     c0-0.1,0.01-0.19,0.04-0.28c0.22-2.09,0.13-29.18-0.02-54.07c-0.01-0.95,0.36-1.84,1.03-2.51c0.67-0.68,1.56-1.04,2.52-1.04     h35.86c1.95,0,3.54,1.59,3.54,3.54v54.36C91.47,123.44,91.03,123.87,90.51,123.87z"></path>		</g>		<g>			<path class="st0" d="M69.99,123.87c-0.53,0-0.96-0.43-0.96-0.96V65.96c0-0.53,0.43-0.96,0.96-0.96c0.53,0,0.96,0.43,0.96,0.96     v56.94C70.95,123.44,70.51,123.87,69.99,123.87z"></path>		</g>		<g>			<path class="st0" d="M41.65,103.99H13.49c-0.53,0-0.96-0.43-0.96-0.96c0-0.53,0.43-0.96,0.96-0.96h28.16     c0.53,0,0.96,0.43,0.96,0.96C42.61,103.57,42.17,103.99,41.65,103.99z"></path>		</g>		<g>			<path class="st0" d="M127.3,103.99H98.67c-0.53,0-0.96-0.43-0.96-0.96c0-0.53,0.43-0.96,0.96-0.96h28.63     c0.53,0,0.96,0.43,0.96,0.96C128.26,103.57,127.83,103.99,127.3,103.99z"></path>		</g>		<g>			<path class="st0" d="M32.87,95.87H22.34c-1.19,0-2.16-0.97-2.16-2.16V79.55c0-1.19,0.97-2.16,2.16-2.16h10.54     c1.19,0,2.16,0.97,2.16,2.16v14.16C35.03,94.9,34.06,95.87,32.87,95.87z M22.34,79.31c-0.13,0-0.24,0.11-0.24,0.24v14.16     c0,0.13,0.11,0.24,0.24,0.24h10.54c0.13,0,0.24-0.11,0.24-0.24V79.55c0-0.13-0.1-0.24-0.24-0.24L22.34,79.31L22.34,79.31z"></path>		</g>		<g>			<path class="st0" d="M117.62,95.87h-10.54c-1.19,0-2.16-0.97-2.16-2.16V79.55c0-1.19,0.97-2.16,2.16-2.16h10.54     c1.19,0,2.16,0.97,2.16,2.16v14.16C119.78,94.9,118.81,95.87,117.62,95.87z M107.08,79.31c-0.13,0-0.24,0.1-0.24,0.24v14.16     c0,0.13,0.11,0.24,0.24,0.24h10.54c0.13,0,0.24-0.11,0.24-0.24V79.55c0-0.13-0.1-0.24-0.24-0.24L107.08,79.31L107.08,79.31z"></path>		</g>		<g>			<path class="st0" d="M60.81,95.87h-4.1c-0.53,0-0.96-0.43-0.96-0.96c0-0.53,0.43-0.96,0.96-0.96h4.1c0.53,0,0.96,0.43,0.96,0.96     C61.77,95.44,61.34,95.87,60.81,95.87z"></path>		</g>		<g>			<path class="st0" d="M83.05,95.87h-4.1c-0.53,0-0.96-0.43-0.96-0.96c0-0.53,0.43-0.96,0.96-0.96h4.1c0.53,0,0.96,0.43,0.96,0.96     C84.02,95.44,83.58,95.87,83.05,95.87z"></path>		</g>		<g>			<path class="st0" d="M61.64,43.84c-3.13,0-5.69-2.55-5.69-5.69s2.55-5.69,5.69-5.69c3.14,0,5.69,2.55,5.69,5.69     S64.78,43.84,61.64,43.84z M61.64,34.38c-2.08,0-3.77,1.69-3.77,3.77c0,2.08,1.69,3.77,3.77,3.77c2.08,0,3.77-1.7,3.77-3.77     C65.41,36.07,63.72,34.38,61.64,34.38z"></path>		</g>		<g>			<path class="st0" d="M82.22,39.11c-0.53,0-0.96-0.43-0.96-0.96V18.58l-13.93,1.67v17.9c0,0.53-0.43,0.96-0.96,0.96     c-0.53,0-0.96-0.43-0.96-0.96V19.39c0-0.48,0.37-0.9,0.84-0.95l15.85-1.89c0.29-0.04,0.54,0.05,0.75,0.23     c0.21,0.18,0.32,0.44,0.32,0.72v20.65C83.19,38.68,82.75,39.11,82.22,39.11z"></path>		</g>		<g>			<path class="st0" d="M77.5,43.84c-3.14,0-5.69-2.55-5.69-5.69s2.55-5.69,5.69-5.69c3.13,0,5.69,2.55,5.69,5.69     S80.63,43.84,77.5,43.84z M77.5,34.38c-2.08,0-3.77,1.69-3.77,3.77c0,2.08,1.7,3.77,3.77,3.77s3.77-1.7,3.77-3.77     C81.26,36.07,79.57,34.38,77.5,34.38z"></path>		</g>		<g>			<path class="st0" d="M66.37,27.34c-0.47,0-0.88-0.35-0.95-0.83c-0.07-0.52,0.3-1.01,0.82-1.08L82.1,23.3     c0.51-0.1,1.01,0.29,1.08,0.82c0.07,0.52-0.3,1.01-0.82,1.08l-15.85,2.13C66.45,27.33,66.41,27.34,66.37,27.34z"></path>		</g>	</g></g></svg>