<svg xmlns="http://www.w3.org/2000/svg" xmlns:xlink="http://www.w3.org/1999/xlink" id="Object" x="0px" y="0px" viewBox="0 0 140 140" style="enable-background:new 0 0 140 140;" xml:space="preserve"><style type="text/css">	.st0{fill-rule:evenodd;clip-rule:evenodd;fill:#CCAF89;}</style><g>	<path class="st0" d="M14.72,44.85L70,38.21l55.28,6.64l1.69,0.2v1.69v7.58h1.83V41.68c3.39,0,1.39,0,4.78,0v60.11h-4.78V90.1h-1.83   v7.43v1.91h-1.91H14.94h-1.91v-1.91V90.1H11.2v11.69H6.42V41.68c3.39,0,1.39,0,4.78,0v12.65h1.83v-7.58v-1.69L14.72,44.85   L14.72,44.85z M128.8,86.28V58.16h-1.83v28.12H128.8L128.8,86.28z M13.03,86.28V58.16H11.2v28.12H13.03L13.03,86.28z M62.79,51.66   v35.1h5.06V51.05L62.79,51.66L62.79,51.66z M59.92,86.76V52l-4.74,0.57v34.18H59.92L59.92,86.76z M80.08,52v34.75h4.74V52.57   L80.08,52L80.08,52z M77.21,86.76v-35.1l-5.06-0.61v35.71H77.21L77.21,86.76z M118.14,56.59v30.17h5.01V57.19L118.14,56.59   L118.14,56.59z M115.27,86.76V56.24l-4.74-0.57v31.09H115.27L115.27,86.76z M107.66,86.76V55.32l-4.74-0.57v32H107.66L107.66,86.76   z M100.04,86.76V54.41l-4.74-0.57v32.92H100.04L100.04,86.76z M92.43,86.76V53.49l-4.74-0.57v33.84H92.43L92.43,86.76z    M24.73,56.24v30.52h4.74V55.67L24.73,56.24L24.73,56.24z M21.86,86.76V56.59l-5.01,0.6v29.57H21.86L21.86,86.76z M32.34,55.32   v31.43h4.74v-32L32.34,55.32L32.34,55.32z M39.96,54.41v32.35h4.74V53.84L39.96,54.41L39.96,54.41z M47.57,53.49v33.27h4.74V52.92   L47.57,53.49L47.57,53.49z M16.86,54.3l50.99-6.14v-5.86l-50.99,6.14V54.3L16.86,54.3z M72.15,48.16l50.99,6.14v-5.86l-50.99-6.14   V48.16L72.15,48.16z M123.14,89.63H72.15v5.99h50.99V89.63L123.14,89.63z M67.85,89.63H16.86v5.99h50.99V89.63z"></path></g></svg>